<?xml version="1.0" standalone="no"?>
<!DOCTYPE svg PUBLIC "-//W3C//DTD SVG 20010904//EN"
 "http://www.w3.org/TR/2001/REC-SVG-20010904/DTD/svg10.dtd">
<svg version="1.0" xmlns="http://www.w3.org/2000/svg"
 width="500.000000pt" height="500.000000pt" viewBox="0 0 500.000000 500.000000"
 preserveAspectRatio="xMidYMid meet">

<g transform="translate(0.000000,500.000000) scale(0.100000,-0.100000)"
fill="#000000" stroke="none">
<path d="M3454 3173 c-38 -78 -40 -175 -3 -247 39 -78 50 -80 114 -16 l55 54
0 81 0 81 -53 52 c-29 29 -60 52 -69 52 -10 0 -27 -22 -44 -57z"/>
<path d="M3581 2896 c-37 -37 -52 -60 -47 -71 11 -30 112 -67 181 -67 69 0
170 37 181 67 5 11 -10 34 -47 71 l-53 54 -81 0 -81 0 -53 -54z"/>
<path d="M2610 2545 l0 -265 50 0 50 0 0 115 c0 110 1 117 25 140 33 34 83 34
116 -1 22 -23 24 -35 27 -140 l4 -114 44 0 44 0 0 115 c0 132 -10 165 -63 212
-48 42 -105 51 -157 25 l-40 -19 0 98 0 99 -50 0 -50 0 0 -265z"/>
<path d="M1063 2643 c-34 -81 -82 -196 -107 -255 l-45 -108 58 0 58 0 20 53
20 52 115 3 115 3 23 -56 22 -55 54 0 c30 0 54 3 54 8 0 4 -47 117 -103 252
l-102 245 -60 3 -60 3 -62 -148z m181 -130 c7 -22 5 -23 -58 -23 -36 0 -66 4
-66 9 0 8 13 41 46 119 l16 37 28 -60 c15 -33 31 -70 34 -82z"/>
<path d="M3730 2680 c0 -33 -4 -42 -25 -52 -19 -9 -25 -19 -25 -45 0 -29 3
-33 25 -33 25 0 25 0 25 -100 0 -55 5 -111 12 -125 21 -46 88 -67 156 -49 18
5 22 13 22 43 0 36 -1 37 -36 37 -52 0 -64 22 -64 116 l0 78 50 0 50 0 0 45 0
45 -50 0 -50 0 0 40 0 40 -45 0 -45 0 0 -40z"/>
<path d="M1650 2639 c-14 -6 -35 -19 -46 -30 l-22 -20 -6 25 c-6 23 -12 26
-46 26 l-40 0 0 -180 0 -180 45 0 45 0 0 99 c0 55 4 111 10 125 12 32 58 56
110 56 40 0 40 0 40 39 0 32 -4 40 -22 45 -29 7 -38 7 -68 -5z"/>
<path d="M1935 2643 c-11 -3 -32 -16 -47 -30 l-27 -26 -7 27 c-5 23 -11 26
-50 26 l-44 0 0 -180 0 -180 50 0 50 0 0 109 c0 100 2 112 23 136 17 20 35 28
77 33 55 7 55 7 58 43 3 31 -1 37 -20 43 -25 6 -33 6 -63 -1z"/>
<path d="M3117 2635 c-50 -17 -85 -50 -108 -100 -23 -49 -24 -94 -4 -143 32
-75 90 -115 170 -115 80 0 138 40 170 115 41 99 -18 218 -123 248 -47 13 -58
12 -105 -5z m106 -88 c27 -19 46 -85 36 -121 -16 -57 -78 -83 -131 -55 -27 15
-49 71 -42 108 14 67 89 104 137 68z"/>
<path d="M3491 2642 c-53 -9 -101 -62 -101 -111 0 -55 39 -89 128 -111 50 -13
58 -43 16 -62 -21 -10 -31 -9 -56 5 -27 15 -32 15 -59 1 -36 -18 -34 -31 12
-62 29 -20 43 -23 98 -20 59 4 66 7 98 42 31 33 34 43 29 74 -7 48 -41 79
-104 95 -59 15 -75 27 -67 50 10 24 35 29 62 12 20 -13 30 -14 59 -5 37 13 39
17 21 41 -29 37 -89 60 -136 51z"/>
<path d="M2106 2487 l77 -153 -42 -93 c-22 -52 -41 -95 -41 -98 0 -2 23 -3 51
-1 l51 3 109 243 c60 133 109 244 109 247 0 3 -22 5 -50 5 l-49 0 -21 -47
c-11 -27 -31 -70 -44 -98 l-23 -50 -49 98 -49 97 -52 0 -53 0 76 -153z"/>
<path d="M2464 2355 c-15 -23 -15 -27 0 -50 20 -30 56 -33 79 -7 22 24 21 45
-1 65 -27 24 -59 21 -78 -8z"/>
<path d="M1200 1875 c0 -63 4 -105 10 -105 6 0 10 37 10 90 0 50 3 90 8 90 4
0 28 -40 53 -88 25 -48 53 -88 62 -90 15 -3 17 9 17 102 0 64 -4 106 -10 106
-6 0 -10 -38 -10 -92 l0 -93 -51 93 c-37 67 -56 92 -70 92 -18 0 -19 -8 -19
-105z"/>
<path d="M1523 1956 c-25 -21 -28 -31 -28 -81 0 -50 3 -60 28 -81 46 -39 123
-27 146 23 20 44 14 111 -14 138 -33 34 -93 34 -132 1z m112 -11 c45 -44 25
-145 -31 -159 -58 -15 -103 53 -83 126 16 61 71 77 114 33z"/>
<path d="M1800 1970 c0 -5 16 -10 35 -10 l35 0 0 -95 c0 -57 4 -95 10 -95 6 0
10 38 10 95 l0 95 40 0 c22 0 40 5 40 10 0 6 -35 10 -85 10 -50 0 -85 -4 -85
-10z"/>
<path d="M2240 1875 c0 -63 4 -105 10 -105 6 0 10 22 10 49 l0 50 53 4 52 3
-52 2 -53 2 0 40 0 40 55 0 c30 0 55 5 55 10 0 6 -28 10 -65 10 l-65 0 0 -105z"/>
<path d="M2519 1967 c-26 -20 -39 -53 -39 -97 0 -90 99 -133 161 -71 23 23 29
38 29 71 0 44 -13 77 -39 97 -21 16 -91 16 -112 0z m91 -7 c51 -27 47 -145 -7
-169 -71 -33 -130 58 -88 139 20 39 56 51 95 30z"/>
<path d="M2800 1901 c0 -64 4 -83 21 -105 24 -30 72 -35 107 -10 20 14 22 23
21 107 l-2 92 -8 -85 c-7 -69 -12 -88 -30 -103 -24 -19 -56 -15 -76 11 -8 10
-13 47 -13 94 0 45 -4 78 -10 78 -6 0 -10 -33 -10 -79z"/>
<path d="M3100 1876 c0 -130 18 -143 22 -16 l3 91 48 -91 c35 -66 54 -90 68
-90 18 0 19 8 19 105 0 63 -4 105 -10 105 -6 0 -10 -37 -10 -92 0 -107 -3
-107 -65 9 -22 43 -49 79 -58 81 -15 3 -17 -8 -17 -102z"/>
<path d="M3400 1876 l0 -106 39 0 c21 0 52 5 70 11 60 21 82 114 38 165 -20
23 -34 28 -85 32 l-62 4 0 -106z m123 67 c24 -27 31 -70 17 -104 -15 -36 -37
-49 -84 -49 l-36 0 0 85 0 85 43 0 c29 0 49 -6 60 -17z"/>
</g>
</svg>
