<svg id="svg" version="1.1" xmlns="http://www.w3.org/2000/svg" xmlns:xlink="http://www.w3.org/1999/xlink" width="400" height="400" viewBox="0, 0, 400,400"><g id="svgg"><path id="path0" d="M0.000 200.000 L 0.000 400.000 200.000 400.000 L 400.000 400.000 400.000 200.000 L 400.000 0.000 200.000 0.000 L 0.000 0.000 0.000 200.000 M304.040 133.368 C 308.382 134.684,312.800 137.678,312.800 139.303 C 312.800 140.163,305.138 148.203,303.520 149.041 C 301.263 150.210,292.003 149.807,290.160 148.459 C 287.685 146.649,281.600 140.106,281.600 139.255 C 281.600 134.792,296.148 130.975,304.040 133.368 M316.345 141.945 C 322.934 148.534,322.889 163.760,316.260 170.900 C 314.518 172.776,313.855 172.447,308.506 167.055 L 303.600 162.110 303.600 156.635 C 303.600 149.954,303.467 150.243,309.106 144.700 C 314.023 139.867,314.200 139.800,316.345 141.945 M285.706 145.506 L 290.400 150.212 290.400 156.400 L 290.400 162.587 285.653 167.294 C 280.473 172.429,279.870 172.711,278.232 170.765 C 271.806 163.129,271.742 148.698,278.103 142.100 C 280.038 140.094,280.527 140.313,285.706 145.506 M302.268 151.332 C 302.778 151.843,302.918 159.256,302.441 160.500 L 302.020 161.600 297.197 161.600 C 291.470 161.600,291.800 161.938,291.800 156.068 C 291.800 150.715,291.818 150.700,297.668 150.873 C 300.015 150.943,302.085 151.150,302.268 151.332 M308.187 167.813 C 313.315 172.941,313.625 173.634,311.565 175.368 C 304.624 181.208,292.690 181.863,284.851 176.833 C 280.460 174.015,280.561 173.426,286.432 167.586 L 290.841 163.200 297.208 163.200 L 303.574 163.200 308.187 167.813 M217.109 182.428 L 217.217 189.855 219.509 188.736 C 226.724 185.214,234.900 189.494,237.861 198.345 C 238.358 199.830,238.760 200.585,238.775 200.057 C 238.866 196.655,243.352 191.052,247.600 189.035 C 260.223 183.040,273.773 196.567,268.012 209.412 C 262.250 222.260,244.037 221.491,239.292 208.200 C 238.944 207.226,238.857 207.944,238.832 212.020 C 238.793 218.150,238.910 218.000,234.169 218.000 C 229.291 218.000,229.462 218.285,229.814 210.716 C 230.296 200.345,228.220 195.600,223.200 195.600 C 218.570 195.600,217.448 198.106,217.200 209.000 L 217.000 217.800 212.800 217.800 L 208.600 217.800 208.496 196.800 C 208.439 185.250,208.481 175.569,208.589 175.286 C 208.736 174.903,209.831 174.801,212.893 174.886 L 217.000 175.000 217.109 182.428 M99.886 176.500 C 100.204 176.913,105.373 189.195,115.306 213.138 C 117.358 218.085,117.416 218.001,111.913 217.994 C 106.439 217.986,106.886 218.279,104.893 213.400 L 103.259 209.400 94.729 209.306 L 86.200 209.212 84.400 213.506 L 82.600 217.800 77.833 217.913 C 75.212 217.976,72.897 217.857,72.691 217.651 C 72.456 217.416,74.006 213.234,76.809 206.537 C 79.281 200.632,81.928 194.270,82.691 192.400 C 83.454 190.530,84.405 188.280,84.804 187.400 C 85.202 186.520,86.070 184.450,86.731 182.800 C 87.393 181.150,88.317 178.945,88.786 177.900 L 89.637 176.000 94.570 176.000 C 98.044 176.000,99.616 176.148,99.886 176.500 M306.400 185.200 L 306.600 188.200 309.600 188.301 C 314.656 188.472,314.400 188.255,314.400 192.365 C 314.400 196.544,314.566 196.400,309.767 196.400 L 306.400 196.400 306.402 201.700 C 306.406 210.063,306.634 210.496,311.200 210.800 L 314.200 211.000 314.316 214.314 L 314.433 217.627 312.916 218.282 C 310.544 219.307,304.654 219.219,302.600 218.128 C 298.397 215.895,297.828 214.321,297.671 204.500 L 297.541 196.400 295.785 196.400 C 291.784 196.400,292.027 190.742,296.100 189.060 L 297.600 188.441 297.600 185.487 C 297.600 181.794,297.387 181.952,302.180 182.087 L 306.200 182.200 306.400 185.200 M139.612 188.207 C 139.922 188.399,141.748 188.506,143.670 188.445 C 148.134 188.304,148.651 188.478,148.981 190.239 L 149.246 191.650 150.033 190.649 C 151.575 188.688,154.908 187.507,158.141 187.775 C 159.714 187.905,163.285 188.113,166.077 188.237 C 172.077 188.504,171.153 187.718,175.242 196.035 C 177.042 199.697,178.580 202.369,178.770 202.164 C 178.955 201.964,180.404 198.920,181.991 195.400 C 185.388 187.862,184.763 188.414,189.913 188.406 C 195.340 188.398,195.249 187.817,191.200 196.600 C 190.490 198.140,188.871 201.740,187.602 204.600 C 186.333 207.460,184.672 211.150,183.911 212.800 C 183.150 214.450,181.298 218.590,179.796 222.000 C 176.207 230.145,176.799 229.600,171.538 229.600 C 166.190 229.600,166.268 230.318,170.565 220.716 L 173.914 213.232 168.300 201.984 C 162.614 190.591,162.028 189.791,162.000 193.400 C 161.981 195.851,161.636 196.146,159.144 195.839 C 155.347 195.372,151.042 197.289,149.882 199.965 C 149.625 200.558,149.341 204.582,149.217 209.400 L 149.000 217.800 144.800 217.800 L 140.600 217.800 140.400 204.000 C 140.268 194.887,140.098 191.069,139.900 192.759 C 139.510 196.082,139.223 196.410,137.118 195.937 C 134.004 195.237,129.746 196.741,128.141 199.107 C 127.488 200.070,127.385 201.219,127.271 208.795 C 127.121 218.725,127.498 217.986,122.580 217.994 C 117.601 218.002,118.000 219.291,118.000 203.200 C 118.000 187.158,117.631 188.400,122.400 188.400 C 126.068 188.400,126.800 188.713,126.800 190.280 C 126.800 191.476,126.961 191.446,128.782 189.917 C 131.332 187.776,137.371 186.823,139.612 188.207 M285.448 188.452 C 289.218 189.863,292.514 193.816,291.220 195.376 C 290.962 195.686,289.558 196.315,288.100 196.773 L 285.449 197.605 284.376 196.577 C 282.699 194.971,279.851 195.271,279.677 197.073 C 279.536 198.527,280.090 198.968,282.607 199.406 C 289.808 200.659,293.200 203.778,293.200 209.148 C 293.200 218.593,276.832 222.252,271.313 214.041 C 269.963 212.031,270.119 211.744,273.413 210.181 L 276.426 208.751 277.644 209.776 C 279.260 211.135,282.672 211.246,283.821 209.977 C 285.210 208.442,284.337 207.872,278.293 206.367 C 268.388 203.901,267.854 192.149,277.477 188.389 C 280.029 187.392,282.670 187.413,285.448 188.452 M94.186 190.060 C 94.025 190.577,93.017 193.048,91.947 195.550 C 90.876 198.053,90.000 200.168,90.000 200.250 C 90.000 200.333,92.070 200.400,94.600 200.400 C 97.130 200.400,99.200 200.283,99.200 200.139 C 99.200 199.681,95.135 189.814,94.801 189.460 C 94.624 189.273,94.348 189.543,94.186 190.060 M251.800 196.066 C 245.023 199.805,246.782 210.832,254.149 210.793 C 258.691 210.770,261.785 204.890,259.781 200.093 C 258.276 196.490,254.492 194.581,251.800 196.066 M202.657 209.454 C 206.016 211.048,206.079 216.104,202.760 217.820 C 198.123 220.218,193.360 214.724,196.667 210.793 C 198.403 208.730,200.258 208.316,202.657 209.454 M131.993 242.326 C 139.678 248.417,133.825 261.343,124.518 258.833 C 116.569 256.688,116.696 242.327,124.676 240.990 C 125.514 240.849,126.377 240.690,126.593 240.636 C 127.658 240.370,130.743 241.335,131.993 242.326 M210.561 241.921 C 216.589 245.442,215.192 256.920,208.511 258.776 C 202.269 260.509,197.800 256.752,197.800 249.771 C 197.800 242.250,204.289 238.258,210.561 241.921 M99.192 241.196 C 99.776 241.508,103.476 247.952,106.200 253.400 C 106.488 253.975,106.630 252.460,106.706 248.000 C 106.818 241.480,107.107 240.498,108.739 241.098 C 109.911 241.530,109.988 242.078,109.994 250.020 C 110.001 258.666,109.963 258.800,107.547 258.800 C 105.730 258.800,105.549 258.565,101.762 251.301 L 99.000 246.002 98.889 251.873 C 98.770 258.170,98.545 258.919,96.834 258.720 L 95.800 258.600 95.692 250.090 L 95.584 241.580 96.492 241.215 C 97.706 240.728,98.309 240.723,99.192 241.196 M157.584 241.381 C 158.734 242.766,157.946 243.394,154.905 243.517 L 152.018 243.635 151.909 251.117 L 151.800 258.600 150.600 258.600 L 149.400 258.600 149.291 251.100 L 149.182 243.600 146.440 243.600 C 143.575 243.600,142.561 243.087,143.027 241.873 C 143.485 240.679,156.632 240.234,157.584 241.381 M189.584 241.381 C 190.880 242.943,190.015 243.394,185.495 243.514 L 181.200 243.627 181.200 246.014 L 181.200 248.400 184.751 248.400 C 188.579 248.400,189.499 248.828,189.006 250.381 C 188.768 251.130,188.424 251.200,184.988 251.200 L 181.230 251.200 181.115 254.900 C 180.993 258.814,180.279 259.794,178.578 258.382 C 177.951 257.861,177.702 242.664,178.306 241.760 C 179.048 240.650,188.708 240.325,189.584 241.381 M226.033 241.200 C 226.238 241.200,226.401 243.707,226.402 246.900 C 226.405 255.191,226.905 256.400,230.329 256.400 C 233.519 256.400,233.772 255.830,234.000 248.136 L 234.200 241.400 235.600 241.400 L 237.000 241.400 237.110 247.411 C 237.237 254.354,236.863 255.975,234.739 257.694 C 231.800 260.073,226.613 259.448,224.589 256.470 C 222.733 253.739,223.197 240.253,225.121 240.991 C 225.421 241.106,225.831 241.200,226.033 241.200 M250.259 241.041 C 250.872 241.206,252.075 243.060,254.459 247.513 L 257.800 253.753 257.897 248.377 C 258.025 241.353,258.085 241.118,259.714 241.276 L 261.000 241.400 261.000 250.000 L 261.000 258.600 259.852 258.731 C 257.924 258.952,257.000 258.494,256.180 256.913 C 255.748 256.081,254.226 253.240,252.797 250.600 L 250.200 245.800 250.000 252.200 C 249.787 259.021,249.360 260.027,247.378 258.382 C 246.751 257.861,246.502 242.664,247.106 241.760 C 247.650 240.946,248.868 240.668,250.259 241.041 M281.734 241.802 C 288.400 244.606,287.516 256.347,280.482 258.414 C 279.667 258.654,277.380 258.794,275.400 258.725 L 271.800 258.600 271.692 250.029 C 271.609 243.449,271.702 241.376,272.092 241.109 C 272.801 240.623,280.195 241.154,281.734 241.802 M125.400 243.471 C 121.469 244.512,120.612 252.843,124.143 255.691 C 126.325 257.451,130.277 256.290,131.366 253.568 C 133.635 247.896,130.260 242.183,125.400 243.471 M204.020 243.710 C 200.295 245.033,199.791 253.328,203.287 255.776 C 206.916 258.317,210.918 255.235,210.918 249.898 C 210.918 244.770,208.115 242.255,204.020 243.710 M274.406 249.500 C 274.413 256.526,274.444 256.601,277.169 256.278 C 281.304 255.789,282.868 254.085,282.906 250.029 C 282.948 245.591,281.010 243.600,276.646 243.600 L 274.400 243.600 274.406 249.500 " stroke="none" fill="#fbfbfb" fill-rule="evenodd"></path><path id="path1" d="M309.234 145.786 L 304.600 150.371 304.469 156.017 L 304.338 161.664 309.048 166.432 C 314.257 171.706,314.608 171.863,316.333 169.684 C 321.789 162.795,322.103 151.736,317.062 144.000 C 314.644 140.290,314.830 140.248,309.234 145.786 M209.200 196.400 L 209.200 217.200 212.800 217.200 L 216.400 217.200 216.409 208.900 C 216.421 197.602,217.819 194.800,223.446 194.800 C 228.715 194.800,230.800 199.130,230.800 210.073 L 230.800 217.200 234.227 217.200 L 237.654 217.200 237.527 208.100 L 237.400 199.000 236.139 196.339 C 232.709 189.100,223.240 185.883,218.315 190.285 C 216.634 191.787,216.400 190.896,216.400 183.013 L 216.400 175.600 212.800 175.600 L 209.200 175.600 209.200 196.400 M83.410 192.888 C 79.709 201.750,75.907 210.851,74.960 213.113 L 73.239 217.226 77.692 217.113 L 82.145 217.000 83.663 213.253 C 85.814 207.943,84.781 208.400,94.620 208.400 C 104.546 208.400,103.625 207.992,105.787 213.343 L 107.346 217.200 111.673 217.200 C 114.053 217.200,116.000 217.153,116.000 217.095 C 116.000 217.037,112.246 207.992,107.658 196.995 L 99.317 177.000 94.727 176.888 L 90.137 176.776 83.410 192.888 M298.317 185.895 L 298.200 188.991 296.300 189.892 L 294.400 190.792 294.400 193.174 L 294.400 195.556 296.300 195.678 L 298.200 195.800 298.408 204.000 C 298.725 216.506,301.231 219.503,310.142 218.031 C 313.746 217.436,313.600 217.589,313.600 214.407 L 313.600 211.661 311.232 211.730 C 306.507 211.869,305.614 210.346,305.606 202.143 C 305.599 195.135,305.288 195.600,309.990 195.600 C 313.614 195.600,313.600 195.615,313.600 191.767 L 313.600 189.200 310.233 189.200 C 305.514 189.200,305.600 189.264,305.600 185.757 L 305.600 182.800 302.017 182.800 L 298.434 182.800 298.317 185.895 M97.810 194.219 C 100.867 201.542,101.028 201.200,94.538 201.200 C 88.398 201.200,88.563 201.554,91.437 194.555 C 94.839 186.271,94.500 186.289,97.810 194.219 M131.802 189.041 C 130.923 189.363,129.431 190.385,128.486 191.312 C 126.732 193.034,126.023 192.983,126.006 191.133 C 125.990 189.391,125.629 189.200,122.357 189.200 L 119.200 189.200 119.200 203.200 L 119.200 217.200 122.800 217.200 L 126.400 217.200 126.400 209.063 C 126.400 197.553,128.107 194.971,135.676 195.033 L 138.752 195.058 139.022 192.537 C 139.170 191.150,139.196 189.768,139.080 189.465 C 138.644 188.329,134.420 188.083,131.802 189.041 M154.304 188.945 C 152.261 189.707,150.935 190.623,150.160 191.806 C 149.190 193.285,148.000 192.280,148.000 189.981 C 148.000 189.268,147.706 189.200,144.600 189.200 L 141.200 189.200 141.200 203.200 L 141.200 217.200 144.800 217.200 L 148.400 217.200 148.402 209.700 C 148.403 205.463,148.597 201.508,148.846 200.609 C 149.823 197.089,154.211 194.584,158.895 194.871 L 160.989 195.000 161.301 192.226 C 161.483 190.605,161.459 189.299,161.243 189.083 C 160.597 188.437,155.914 188.343,154.304 188.945 M249.889 188.968 C 239.303 191.815,235.862 206.149,243.948 213.713 C 253.326 222.485,267.726 216.627,268.315 203.800 C 268.784 193.568,259.769 186.311,249.889 188.968 M278.133 189.118 C 269.115 192.333,269.129 202.824,278.154 205.370 C 279.279 205.688,280.948 206.141,281.861 206.378 C 284.450 207.049,285.474 208.058,284.988 209.458 C 284.138 211.907,280.055 212.634,277.516 210.788 C 276.128 209.779,272.427 210.738,271.420 212.368 C 270.337 214.120,277.022 217.684,281.360 217.667 C 294.788 217.614,296.724 203.532,283.709 200.578 C 279.758 199.681,279.638 199.630,278.942 198.567 C 276.968 195.556,282.465 192.986,284.817 195.820 C 285.433 196.563,286.215 196.551,288.528 195.763 C 290.822 194.981,290.992 194.731,290.231 193.259 C 288.296 189.518,282.538 187.547,278.133 189.118 M168.812 201.225 L 174.828 213.250 171.465 220.725 C 169.615 224.836,168.179 228.335,168.274 228.500 C 168.580 229.031,175.465 228.850,175.879 228.300 C 176.086 228.025,177.266 225.550,178.502 222.800 C 179.738 220.050,183.387 211.950,186.611 204.800 C 189.835 197.650,192.717 191.215,193.016 190.500 L 193.559 189.200 189.639 189.200 L 185.719 189.200 182.500 196.300 C 180.637 200.410,179.054 203.400,178.741 203.400 C 178.442 203.400,176.589 200.222,174.600 196.301 L 171.000 189.201 166.899 189.201 L 162.797 189.200 168.812 201.225 M257.530 195.882 C 263.948 200.641,261.417 211.548,253.884 211.591 C 247.237 211.630,244.184 202.309,249.121 197.051 C 251.330 194.699,255.208 194.160,257.530 195.882 M198.330 210.285 C 196.442 211.456,195.927 213.525,197.004 215.608 C 198.224 217.967,201.289 218.372,203.231 216.431 C 206.541 213.121,202.311 207.815,198.330 210.285 M123.173 242.527 C 117.313 245.626,118.496 256.303,124.890 258.024 C 130.502 259.535,134.610 255.772,134.302 249.400 C 133.986 242.851,128.715 239.596,123.173 242.527 M202.489 242.239 C 196.426 245.346,197.267 256.295,203.702 258.027 C 210.628 259.892,216.012 252.331,212.637 245.477 C 210.989 242.131,205.880 240.501,202.489 242.239 M96.400 249.976 C 96.400 256.842,96.487 258.000,97.000 258.000 C 97.511 258.000,97.600 256.952,97.600 250.971 C 97.600 242.019,97.708 242.020,102.546 251.000 C 106.040 257.485,106.270 257.806,107.505 257.925 L 108.800 258.051 108.800 250.025 C 108.800 243.215,108.711 242.000,108.209 242.000 C 107.716 242.000,107.601 243.128,107.509 248.867 C 107.444 253.001,107.241 255.782,107.000 255.855 C 106.780 255.922,104.952 252.876,102.937 249.088 C 99.306 242.260,99.262 242.199,97.837 242.076 L 96.400 241.952 96.400 249.976 M144.000 242.400 C 144.000 242.628,145.186 242.800,146.757 242.800 C 150.186 242.800,150.000 242.327,150.000 251.033 C 150.000 256.959,150.090 258.000,150.600 258.000 C 151.112 258.000,151.200 256.916,151.200 250.643 C 151.200 242.274,150.956 242.800,154.833 242.800 C 156.144 242.800,157.200 242.622,157.200 242.400 C 157.200 242.149,154.733 242.000,150.600 242.000 C 146.467 242.000,144.000 242.149,144.000 242.400 M179.200 250.000 C 179.200 256.844,179.287 258.000,179.800 258.000 C 180.283 258.000,180.400 257.381,180.400 254.833 C 180.400 250.261,180.274 250.400,184.419 250.400 C 186.363 250.400,188.064 250.220,188.200 250.000 C 188.358 249.744,187.073 249.600,184.631 249.600 C 180.223 249.600,180.259 249.637,180.478 245.383 L 180.600 243.000 184.900 242.886 C 190.969 242.726,190.396 242.000,184.200 242.000 L 179.200 242.000 179.200 250.000 M224.400 248.013 C 224.400 256.603,225.295 258.168,230.218 258.190 C 235.220 258.211,236.153 256.707,236.342 248.318 C 236.481 242.117,236.468 242.000,235.642 242.000 C 234.823 242.000,234.800 242.166,234.799 248.100 C 234.797 253.436,234.700 254.360,234.019 255.475 C 232.570 257.853,228.996 258.083,226.933 255.932 L 225.800 254.750 225.672 248.375 C 225.568 243.171,225.440 242.000,224.972 242.000 C 224.501 242.000,224.400 243.063,224.400 248.013 M248.000 250.000 C 248.000 256.788,248.090 258.000,248.591 258.000 C 249.084 258.000,249.199 256.872,249.291 251.133 C 249.407 243.800,249.681 242.908,251.024 245.493 C 257.263 257.508,257.578 258.000,259.027 258.000 L 260.400 258.000 260.400 250.000 C 260.400 243.156,260.313 242.000,259.800 242.000 C 259.290 242.000,259.200 243.044,259.200 249.000 C 259.200 252.850,259.065 255.997,258.900 255.994 C 258.155 255.979,257.513 254.990,254.166 248.708 C 250.680 242.166,250.571 242.016,249.300 242.008 L 248.000 242.000 248.000 250.000 M272.400 249.965 L 272.400 258.000 275.900 257.991 C 281.508 257.977,284.267 256.176,285.177 251.933 C 286.545 245.555,283.756 242.281,276.772 242.065 L 272.400 241.929 272.400 249.965 M129.594 243.101 C 133.779 245.200,134.006 254.170,129.934 256.575 C 127.148 258.221,123.413 257.170,121.965 254.332 C 119.353 249.212,122.227 242.401,127.000 242.401 C 127.660 242.401,128.827 242.716,129.594 243.101 M208.809 243.253 C 210.896 244.426,211.807 246.564,211.777 250.221 C 211.700 259.718,200.861 260.096,200.101 250.629 C 199.605 244.447,204.123 240.620,208.809 243.253 M281.055 243.831 C 287.517 248.656,282.483 259.014,274.633 257.044 L 273.600 256.785 273.600 250.059 C 273.600 246.360,273.735 243.197,273.900 243.030 C 274.540 242.382,279.921 242.985,281.055 243.831 " stroke="none" fill="#636c63" fill-rule="evenodd"></path><path id="path2" d="M291.200 133.771 C 286.961 134.946,282.400 137.737,282.400 139.156 C 282.400 139.534,284.442 141.859,286.939 144.322 L 291.477 148.800 297.245 148.800 L 303.013 148.800 307.507 144.294 C 312.525 139.261,312.643 138.976,310.432 137.225 C 306.005 133.719,297.133 132.126,291.200 133.771 M286.828 168.007 C 281.867 172.945,281.574 173.634,283.684 175.410 C 288.481 179.446,297.764 180.952,304.200 178.737 C 308.296 177.328,312.400 174.552,312.400 173.191 C 312.400 172.999,310.320 170.763,307.779 168.221 L 303.157 163.600 297.207 163.600 L 291.257 163.600 286.828 168.007 " stroke="none" fill="#fc8e56" fill-rule="evenodd"></path><path id="path3" d="M278.213 142.457 C 272.506 149.240,272.205 160.997,277.533 169.100 C 279.628 172.287,280.119 172.138,285.522 166.661 L 290.000 162.123 290.000 156.181 L 290.000 150.238 285.481 145.719 C 280.513 140.751,279.886 140.470,278.213 142.457 " stroke="none" fill="#5474fc" fill-rule="evenodd"></path><path id="path4" d="M308.793 145.900 L 304.600 150.200 308.900 146.007 C 311.265 143.701,313.200 141.766,313.200 141.707 C 313.200 141.418,312.687 141.906,308.793 145.900 M304.154 156.400 C 304.154 159.150,304.218 160.275,304.296 158.900 C 304.374 157.525,304.374 155.275,304.296 153.900 C 304.218 152.525,304.154 153.650,304.154 156.400 M309.000 166.800 C 311.412 169.220,313.476 171.200,313.586 171.200 C 313.696 171.200,311.812 169.220,309.400 166.800 C 306.988 164.380,304.924 162.400,304.814 162.400 C 304.704 162.400,306.588 164.380,309.000 166.800 M208.800 196.400 L 208.800 217.629 212.700 217.514 L 216.600 217.400 216.612 208.900 L 216.624 200.399 216.504 208.800 L 216.384 217.200 212.792 217.200 L 209.200 217.200 209.200 196.400 L 209.200 175.600 212.800 175.600 L 216.400 175.600 216.400 183.013 C 216.400 190.806,216.704 192.007,218.232 190.256 C 218.546 189.897,218.586 189.782,218.321 190.001 C 216.955 191.132,216.820 190.535,216.709 182.900 L 216.600 175.400 212.700 175.286 L 208.800 175.171 208.800 196.400 M89.784 176.827 C 89.639 177.061,89.628 177.361,89.760 177.493 C 89.892 177.625,90.000 177.523,90.000 177.267 C 90.000 176.418,99.066 176.639,99.568 177.500 C 99.792 177.885,99.981 178.011,99.988 177.780 C 100.026 176.463,90.555 175.578,89.784 176.827 M88.838 178.900 C 88.649 179.395,88.204 180.497,87.848 181.349 C 87.144 183.031,87.009 183.767,87.585 182.785 C 88.191 181.749,89.601 178.000,89.384 178.000 C 89.272 178.000,89.026 178.405,88.838 178.900 M102.399 184.385 C 103.241 186.534,104.287 188.530,103.874 187.200 C 103.398 185.667,102.243 182.960,101.911 182.600 C 101.709 182.380,101.928 183.183,102.399 184.385 M298.281 182.653 C 298.126 182.807,298.000 184.244,298.000 185.847 C 298.000 188.200,297.865 188.839,297.300 189.168 C 296.915 189.392,296.789 189.581,297.020 189.588 C 298.009 189.616,298.400 188.519,298.400 185.720 L 298.400 182.800 302.000 182.800 L 305.600 182.800 305.600 185.757 C 305.600 189.284,305.524 189.230,310.333 189.123 L 313.800 189.047 310.000 188.823 L 306.200 188.600 306.000 185.600 L 305.800 182.600 302.181 182.486 C 300.190 182.423,298.435 182.498,298.281 182.653 M84.600 189.061 C 84.264 189.865,84.082 190.615,84.195 190.728 C 84.308 190.841,84.400 190.835,84.400 190.716 C 84.400 190.596,84.672 189.846,85.005 189.049 C 85.338 188.252,85.521 187.600,85.411 187.600 C 85.301 187.600,84.936 188.258,84.600 189.061 M94.003 188.596 C 93.719 188.939,93.597 189.331,93.734 189.467 C 93.870 189.603,94.095 189.419,94.233 189.057 C 94.544 188.247,95.200 188.192,95.200 188.976 C 95.200 189.293,95.378 189.663,95.595 189.797 C 95.845 189.951,95.868 189.712,95.656 189.141 C 95.232 187.994,94.659 187.806,94.003 188.596 M132.129 188.530 C 131.429 188.789,130.720 189.139,130.553 189.309 C 130.386 189.479,131.025 189.344,131.975 189.009 C 135.715 187.689,138.902 188.394,139.243 190.616 L 139.486 192.200 139.543 190.519 C 139.622 188.187,135.819 187.167,132.129 188.530 M155.115 188.328 C 154.738 188.478,155.856 188.600,157.600 188.600 C 159.344 188.600,160.462 188.478,160.085 188.328 C 159.708 188.179,158.590 188.056,157.600 188.056 C 156.610 188.056,155.492 188.179,155.115 188.328 M221.915 188.328 C 221.538 188.478,222.736 188.600,224.577 188.600 C 226.418 188.600,227.716 188.468,227.462 188.306 C 226.890 187.942,222.847 187.958,221.915 188.328 M250.600 188.388 C 250.127 188.584,251.025 188.641,252.800 188.528 C 254.859 188.397,256.422 188.531,257.781 188.954 C 260.333 189.748,260.638 189.493,258.150 188.645 C 256.162 187.967,251.960 187.824,250.600 188.388 M279.516 188.328 C 279.140 188.478,280.130 188.609,281.716 188.621 C 283.473 188.634,284.209 188.532,283.600 188.361 C 282.309 187.998,280.386 187.982,279.516 188.328 M118.982 189.302 C 118.876 189.579,118.837 196.014,118.895 203.602 L 119.000 217.400 122.707 217.515 C 125.454 217.600,126.460 217.497,126.593 217.115 C 126.888 216.266,127.023 199.565,126.728 200.311 C 126.579 200.690,126.444 204.645,126.428 209.100 L 126.400 217.200 122.800 217.200 L 119.200 217.200 119.200 203.200 L 119.200 189.200 122.373 189.200 C 125.789 189.200,125.584 189.065,126.170 191.700 C 126.494 193.156,126.753 193.098,128.619 191.148 C 129.820 189.893,129.944 189.659,129.134 190.172 C 128.547 190.544,127.968 191.107,127.846 191.424 C 127.507 192.309,126.400 192.117,126.400 191.174 C 126.400 189.162,125.786 188.800,122.373 188.800 C 120.175 188.800,119.115 188.957,118.982 189.302 M140.982 189.302 C 140.876 189.579,140.837 196.014,140.895 203.602 L 141.000 217.400 144.900 217.514 L 148.800 217.629 148.709 209.514 L 148.618 201.400 148.500 209.300 L 148.383 217.200 144.792 217.200 L 141.200 217.200 141.200 203.216 L 141.200 189.231 144.700 189.098 L 148.200 188.965 144.687 188.882 C 142.174 188.823,141.120 188.943,140.982 189.302 M150.992 190.546 C 149.090 192.368,148.462 192.268,148.368 190.126 C 148.349 189.673,148.259 189.595,148.128 189.920 C 147.898 190.495,148.735 192.800,149.173 192.800 C 149.325 192.800,149.847 192.262,150.333 191.605 C 150.818 190.949,151.887 190.056,152.708 189.623 C 153.582 189.162,153.913 188.828,153.507 188.818 C 153.126 188.808,151.994 189.586,150.992 190.546 M161.446 189.376 C 161.542 189.625,161.962 189.829,162.381 189.829 C 162.799 189.829,163.058 189.693,162.955 189.528 C 162.853 189.363,164.622 189.165,166.885 189.088 L 171.000 188.949 166.136 188.936 C 162.679 188.928,161.323 189.055,161.446 189.376 M184.780 190.439 C 184.320 191.340,184.019 192.152,184.110 192.243 C 184.200 192.334,184.600 191.686,184.998 190.804 L 185.721 189.200 189.675 189.200 C 193.558 189.200,193.620 189.215,193.182 190.034 C 192.936 190.493,192.836 190.969,192.959 191.092 C 193.243 191.376,193.967 189.504,193.729 189.100 C 193.632 188.935,191.767 188.800,189.585 188.800 L 185.616 188.800 184.780 190.439 M229.865 189.573 C 231.998 190.542,234.496 193.044,235.766 195.484 C 236.314 196.538,236.771 197.256,236.781 197.080 C 236.907 194.918,230.999 188.778,228.822 188.809 C 228.480 188.814,228.949 189.158,229.865 189.573 M275.578 189.932 C 274.600 190.554,273.530 191.407,273.200 191.827 C 272.870 192.248,273.230 192.071,274.000 191.434 C 274.770 190.797,276.120 189.948,277.000 189.547 C 277.880 189.146,278.320 188.814,277.978 188.809 C 277.636 188.804,276.556 189.309,275.578 189.932 M245.151 190.977 C 244.133 191.724,242.898 192.934,242.406 193.667 L 241.511 195.000 242.855 193.535 C 243.595 192.729,244.992 191.514,245.960 190.835 C 246.928 190.156,247.558 189.604,247.360 189.610 C 247.162 189.615,246.168 190.231,245.151 190.977 M262.282 191.067 C 263.373 191.874,264.926 193.427,265.733 194.518 C 267.490 196.893,267.696 196.665,266.009 194.212 C 264.939 192.658,261.350 189.600,260.596 189.600 C 260.432 189.600,261.191 190.260,262.282 191.067 M288.108 190.795 C 290.976 193.223,291.346 195.600,288.857 195.600 C 288.532 195.600,288.381 195.714,288.521 195.854 C 288.859 196.192,291.200 195.206,291.200 194.725 C 291.200 193.605,288.884 190.679,287.400 189.924 C 286.960 189.700,287.279 190.092,288.108 190.795 M294.871 190.235 C 294.068 190.797,293.977 191.155,294.082 193.335 L 294.200 195.800 296.091 195.922 L 297.982 196.043 298.105 202.922 L 298.228 209.800 298.214 202.800 L 298.200 195.800 296.300 195.678 L 294.400 195.556 294.400 193.191 C 294.400 191.022,294.491 190.776,295.500 190.229 C 296.105 189.901,296.415 189.625,296.189 189.616 C 295.963 189.607,295.370 189.886,294.871 190.235 M92.609 191.683 C 90.779 196.229,90.371 197.369,90.707 197.000 C 91.187 196.473,93.643 190.310,93.450 190.117 C 93.368 190.034,92.989 190.739,92.609 191.683 M161.264 192.913 C 161.211 194.491,161.042 194.889,160.300 195.188 L 159.400 195.549 160.292 195.575 C 161.327 195.604,161.751 194.466,161.493 192.355 C 161.359 191.254,161.316 191.358,161.264 192.913 M191.855 193.055 C 191.476 193.849,191.253 194.586,191.359 194.693 C 191.466 194.799,191.836 194.209,192.182 193.382 C 192.998 191.429,192.749 191.180,191.855 193.055 M106.399 193.985 C 107.241 196.134,108.287 198.130,107.874 196.800 C 107.398 195.267,106.243 192.560,105.911 192.200 C 105.709 191.980,105.928 192.783,106.399 193.985 M96.926 192.800 C 97.402 194.333,98.557 197.040,98.889 197.400 C 99.316 197.864,97.742 193.732,97.142 192.815 C 96.801 192.294,96.768 192.292,96.926 192.800 M138.800 193.971 C 138.800 194.749,138.566 195.203,138.100 195.324 C 137.573 195.462,137.623 195.519,138.300 195.554 C 139.071 195.593,139.200 195.399,139.200 194.200 C 139.200 193.430,139.110 192.800,139.000 192.800 C 138.890 192.800,138.800 193.327,138.800 193.971 M183.023 194.206 C 182.160 196.272,182.274 196.506,183.247 194.662 C 183.693 193.816,183.965 193.032,183.852 192.919 C 183.739 192.806,183.366 193.385,183.023 194.206 M271.810 193.980 C 269.584 198.285,273.315 205.665,277.680 205.591 C 277.966 205.586,277.390 205.215,276.400 204.766 C 272.071 202.804,270.173 197.919,272.210 193.980 C 272.546 193.331,272.731 192.800,272.621 192.800 C 272.511 192.800,272.146 193.331,271.810 193.980 M280.128 194.875 C 277.631 196.083,278.524 200.066,281.274 199.984 C 281.563 199.976,281.232 199.722,280.538 199.420 C 277.509 198.102,279.171 194.380,282.523 194.972 C 283.503 195.145,283.614 195.112,283.000 194.827 C 281.959 194.345,281.200 194.357,280.128 194.875 M134.705 195.083 C 135.202 195.179,135.922 195.175,136.305 195.075 C 136.687 194.975,136.280 194.896,135.400 194.901 C 134.520 194.905,134.207 194.987,134.705 195.083 M156.700 195.082 C 157.195 195.178,158.005 195.178,158.500 195.082 C 158.995 194.987,158.590 194.909,157.600 194.909 C 156.610 194.909,156.205 194.987,156.700 195.082 M222.505 195.087 C 223.114 195.179,224.014 195.177,224.505 195.082 C 224.997 194.987,224.500 194.911,223.400 194.914 C 222.300 194.917,221.897 194.995,222.505 195.087 M253.100 195.082 C 253.595 195.178,254.405 195.178,254.900 195.082 C 255.395 194.987,254.990 194.909,254.000 194.909 C 253.010 194.909,252.605 194.987,253.100 195.082 M313.200 195.200 C 313.200 195.434,311.829 195.603,309.900 195.606 C 305.273 195.615,305.522 195.195,305.672 202.733 L 305.800 209.184 306.989 210.292 L 308.177 211.400 307.189 210.269 C 306.224 209.165,306.200 208.977,306.200 202.669 L 306.200 196.200 309.900 196.085 C 312.828 195.994,313.600 195.848,313.600 195.385 C 313.600 195.063,313.510 194.800,313.400 194.800 C 313.290 194.800,313.200 194.980,313.200 195.200 M153.203 195.837 C 151.071 196.762,148.224 199.958,148.917 200.650 C 149.013 200.747,149.311 200.298,149.578 199.652 C 150.259 198.010,151.566 196.891,153.845 196.001 C 154.920 195.581,155.530 195.236,155.200 195.234 C 154.870 195.233,153.971 195.504,153.203 195.837 M190.272 196.619 C 189.332 198.589,189.464 198.924,190.447 197.062 C 190.893 196.216,191.187 195.454,191.101 195.367 C 191.014 195.281,190.641 195.844,190.272 196.619 M219.216 196.248 C 218.053 197.227,216.780 199.153,216.816 199.880 C 216.825 200.056,217.117 199.660,217.465 199.000 C 218.298 197.419,219.614 196.000,220.246 196.000 C 220.525 196.000,220.864 195.820,221.000 195.600 C 221.472 194.836,220.455 195.206,219.216 196.248 M226.493 196.041 C 227.095 196.490,228.054 197.429,228.626 198.128 C 229.197 198.828,229.477 199.020,229.248 198.555 C 228.808 197.663,226.173 195.191,225.686 195.213 C 225.529 195.220,225.892 195.592,226.493 196.041 M240.581 196.437 C 240.229 197.118,240.012 197.745,240.099 197.832 C 240.186 197.919,240.556 197.362,240.922 196.595 C 241.744 194.870,241.459 194.738,240.581 196.437 M249.667 196.700 C 248.830 197.535,248.704 197.736,249.382 197.153 C 250.052 196.577,250.960 195.907,251.400 195.665 C 251.840 195.423,251.968 195.219,251.685 195.212 C 251.401 195.205,250.493 195.875,249.667 196.700 M257.045 195.962 C 258.302 196.729,259.640 198.367,260.144 199.757 C 260.295 200.174,260.525 200.408,260.655 200.278 C 261.290 199.644,257.449 195.198,256.269 195.201 C 256.011 195.202,256.360 195.545,257.045 195.962 M284.562 195.900 C 285.366 196.850,286.599 197.050,287.600 196.394 C 288.026 196.115,287.820 196.074,286.889 196.253 C 285.922 196.438,285.345 196.307,284.689 195.752 L 283.800 195.000 284.562 195.900 M129.478 196.745 C 128.861 197.152,128.067 197.916,127.715 198.442 C 127.248 199.139,127.500 199.019,128.637 198.001 C 129.497 197.232,130.371 196.467,130.580 196.301 C 131.312 195.721,130.589 196.012,129.478 196.745 M181.400 197.861 C 181.064 198.665,180.882 199.415,180.995 199.528 C 181.108 199.641,181.200 199.635,181.200 199.516 C 181.200 199.396,181.472 198.646,181.805 197.849 C 182.138 197.052,182.321 196.400,182.211 196.400 C 182.101 196.400,181.736 197.058,181.400 197.861 M80.600 198.661 C 80.264 199.465,80.082 200.215,80.195 200.328 C 80.308 200.441,80.400 200.435,80.400 200.316 C 80.400 200.196,80.672 199.446,81.005 198.649 C 81.338 197.852,81.521 197.200,81.411 197.200 C 81.301 197.200,80.936 197.858,80.600 198.661 M237.044 198.600 C 237.373 200.071,237.602 200.390,237.594 199.367 C 237.591 198.945,237.405 198.330,237.182 198.000 C 236.885 197.562,236.848 197.724,237.044 198.600 M239.449 199.015 C 239.312 199.373,239.220 200.236,239.244 200.933 C 239.282 202.037,239.333 201.971,239.636 200.425 C 239.993 198.605,239.894 197.857,239.449 199.015 M268.200 203.227 C 268.200 205.618,268.322 207.265,268.472 206.887 C 268.842 205.952,268.859 199.912,268.494 199.340 C 268.332 199.087,268.200 200.836,268.200 203.227 M89.328 200.200 C 89.405 200.952,89.710 201.001,94.405 201.018 L 99.400 201.036 94.527 200.906 C 90.332 200.795,89.626 200.681,89.450 200.088 C 89.297 199.572,89.266 199.600,89.328 200.200 M282.033 200.147 C 282.125 200.228,282.920 200.414,283.800 200.562 C 284.946 200.754,285.230 200.714,284.800 200.421 C 284.260 200.053,281.632 199.793,282.033 200.147 M188.400 200.484 C 188.400 200.604,188.128 201.354,187.795 202.151 C 187.462 202.948,187.279 203.600,187.389 203.600 C 187.706 203.600,188.833 200.700,188.605 200.472 C 188.492 200.359,188.400 200.365,188.400 200.484 M237.691 208.900 L 237.600 217.200 234.209 217.200 L 230.818 217.200 230.699 209.700 L 230.581 202.200 230.491 209.900 L 230.400 217.600 234.013 217.600 C 238.411 217.600,238.045 218.449,237.900 208.589 L 237.782 200.600 237.691 208.900 M246.742 202.100 C 246.479 207.971,249.375 211.698,254.080 211.544 L 255.800 211.487 253.800 211.240 C 249.523 210.712,247.150 207.915,247.150 203.401 C 247.150 200.734,246.846 199.766,246.742 202.100 M260.931 203.400 C 260.933 204.940,261.005 205.521,261.092 204.691 C 261.179 203.861,261.177 202.601,261.089 201.891 C 261.000 201.181,260.929 201.860,260.931 203.400 M287.400 201.782 C 289.705 202.905,290.373 203.417,291.318 204.789 C 291.693 205.333,292.000 205.564,292.000 205.302 C 292.000 204.530,289.289 202.048,287.737 201.400 C 285.447 200.443,285.207 200.714,287.400 201.782 M110.399 203.585 C 111.241 205.734,112.287 207.730,111.874 206.400 C 111.398 204.867,110.243 202.160,109.911 201.800 C 109.709 201.580,109.928 202.383,110.399 203.585 M179.410 202.370 C 179.106 203.326,178.786 203.401,177.999 202.700 C 177.522 202.275,177.518 202.304,177.968 202.900 C 178.260 203.285,178.650 203.600,178.835 203.600 C 179.253 203.600,180.138 202.004,179.869 201.736 C 179.761 201.628,179.554 201.913,179.410 202.370 M186.255 205.455 C 185.876 206.249,185.653 206.986,185.759 207.093 C 185.866 207.199,186.236 206.609,186.582 205.782 C 187.398 203.829,187.149 203.580,186.255 205.455 M239.206 205.233 C 239.209 205.985,239.377 206.861,239.579 207.179 C 239.816 207.554,239.865 207.130,239.718 205.979 C 239.435 203.770,239.198 203.425,239.206 205.233 M77.638 205.700 C 77.449 206.195,77.004 207.297,76.648 208.149 C 75.944 209.831,75.809 210.567,76.385 209.585 C 76.991 208.549,78.401 204.800,78.184 204.800 C 78.072 204.800,77.826 205.205,77.638 205.700 M278.800 206.005 C 279.130 206.216,279.925 206.391,280.567 206.394 C 282.114 206.402,281.777 206.171,279.800 205.868 C 278.710 205.701,278.391 205.745,278.800 206.005 M292.321 208.381 C 292.596 212.176,290.397 215.242,286.200 216.920 C 285.320 217.271,284.803 217.568,285.051 217.579 C 289.271 217.772,294.585 209.832,292.468 206.496 C 292.292 206.220,292.226 207.068,292.321 208.381 M259.808 207.838 C 259.391 208.611,258.319 209.682,257.425 210.218 C 256.531 210.754,255.980 211.193,256.200 211.195 C 257.511 211.202,261.392 207.259,260.728 206.595 C 260.638 206.505,260.224 207.064,259.808 207.838 M284.257 207.600 C 284.508 207.930,284.802 208.560,284.911 209.000 C 285.097 209.760,285.110 209.757,285.154 208.949 C 285.179 208.481,284.885 207.851,284.500 207.549 C 283.891 207.072,283.860 207.078,284.257 207.600 M184.815 208.698 C 183.759 210.958,183.195 212.400,183.365 212.400 C 183.614 212.400,185.642 207.909,185.471 207.737 C 185.393 207.660,185.098 208.092,184.815 208.698 M90.078 208.698 C 92.431 208.769,96.391 208.769,98.878 208.699 C 101.365 208.629,99.440 208.571,94.600 208.570 C 89.760 208.570,87.725 208.628,90.078 208.698 M85.092 209.683 C 83.577 213.465,83.201 214.536,83.504 214.200 C 83.992 213.660,85.648 209.514,85.453 209.320 C 85.368 209.235,85.206 209.398,85.092 209.683 M197.398 210.566 C 195.374 212.589,196.189 217.648,198.529 217.588 C 198.788 217.581,198.685 217.392,198.300 217.168 C 195.878 215.758,195.896 211.795,198.330 210.285 C 198.919 209.920,199.167 209.616,198.882 209.611 C 198.597 209.605,197.929 210.034,197.398 210.566 M202.411 210.282 C 204.042 211.406,204.419 212.117,204.307 213.862 C 204.248 214.776,204.335 215.440,204.500 215.338 C 205.833 214.514,203.650 209.600,201.951 209.600 C 201.660 209.600,201.867 209.907,202.411 210.282 M275.023 209.963 C 274.900 210.162,275.152 210.233,275.583 210.120 C 276.030 210.003,276.808 210.263,277.395 210.725 C 278.618 211.686,281.063 212.173,282.326 211.706 C 282.997 211.458,282.662 211.371,281.029 211.371 C 279.385 211.371,278.525 211.147,277.630 210.486 C 276.368 209.552,275.397 209.358,275.023 209.963 M240.800 210.317 C 240.800 211.995,247.904 217.661,249.887 217.566 C 250.363 217.543,250.267 217.430,249.597 217.226 C 246.853 216.391,243.913 214.172,241.931 211.440 C 241.309 210.582,240.800 210.077,240.800 210.317 M266.367 210.900 C 266.114 211.395,265.163 212.610,264.253 213.600 L 262.600 215.399 264.333 213.800 C 265.866 212.384,267.555 210.000,267.024 210.000 C 266.916 210.000,266.621 210.405,266.367 210.900 M272.500 211.098 C 271.785 211.454,271.200 211.886,271.200 212.059 C 271.200 212.304,273.500 211.192,274.367 210.528 C 274.840 210.165,273.635 210.533,272.500 211.098 M114.399 213.185 C 115.241 215.334,116.287 217.330,115.874 216.000 C 115.398 214.467,114.243 211.760,113.911 211.400 C 113.709 211.180,113.928 211.983,114.399 213.185 M298.400 212.110 C 298.400 212.683,298.587 213.268,298.816 213.410 C 299.089 213.579,299.138 213.277,298.960 212.534 C 298.592 211.001,298.400 210.856,298.400 212.110 M309.382 211.727 C 309.922 211.907,311.136 211.891,312.082 211.692 C 313.719 211.347,313.673 211.332,311.101 211.365 C 309.134 211.391,308.668 211.489,309.382 211.727 M104.926 212.000 C 105.402 213.533,106.557 216.240,106.889 216.600 C 107.316 217.064,105.742 212.932,105.142 212.015 C 104.801 211.494,104.768 211.492,104.926 212.000 M182.800 212.884 C 182.800 213.004,182.528 213.754,182.195 214.551 C 181.862 215.348,181.679 216.000,181.789 216.000 C 182.106 216.000,183.233 213.100,183.005 212.872 C 182.892 212.759,182.800 212.765,182.800 212.884 M271.200 213.123 C 271.200 213.767,274.291 216.344,275.840 216.991 C 278.355 218.042,278.314 217.653,275.783 216.456 C 274.453 215.827,272.878 214.733,272.283 214.025 C 271.687 213.318,271.200 212.911,271.200 213.123 M299.200 214.306 C 299.200 214.534,299.848 215.368,300.640 216.160 C 301.432 216.952,302.266 217.600,302.494 217.600 C 302.722 217.600,302.441 217.233,301.870 216.784 C 301.299 216.335,300.465 215.501,300.016 214.930 C 299.567 214.359,299.200 214.078,299.200 214.306 M73.457 215.700 C 72.677 217.559,72.770 217.600,77.824 217.600 C 80.341 217.600,82.400 217.465,82.401 217.300 C 82.401 217.135,80.336 217.056,77.811 217.124 L 73.221 217.248 73.816 215.824 C 74.143 215.041,74.319 214.400,74.207 214.400 C 74.094 214.400,73.757 214.985,73.457 215.700 M181.200 216.484 C 181.200 216.604,180.928 217.354,180.595 218.151 C 180.262 218.948,180.079 219.600,180.189 219.600 C 180.506 219.600,181.633 216.700,181.405 216.472 C 181.292 216.359,181.200 216.365,181.200 216.484 M111.600 217.200 L 107.000 217.440 111.476 217.520 C 114.119 217.567,116.054 217.436,116.200 217.200 C 116.336 216.980,116.392 216.836,116.324 216.880 C 116.256 216.924,114.130 217.068,111.600 217.200 M171.872 219.019 C 170.932 220.989,171.064 221.324,172.047 219.462 C 172.493 218.616,172.787 217.854,172.701 217.767 C 172.614 217.681,172.241 218.244,171.872 219.019 M199.700 217.876 C 200.085 217.976,200.715 217.976,201.100 217.876 C 201.485 217.775,201.170 217.693,200.400 217.693 C 199.630 217.693,199.315 217.775,199.700 217.876 M252.300 218.153 C 253.309 218.367,254.691 218.367,255.700 218.153 C 257.204 217.834,257.009 217.793,254.000 217.793 C 250.991 217.793,250.796 217.834,252.300 218.153 M279.979 218.032 C 280.738 218.196,282.088 218.191,282.979 218.020 C 284.347 217.757,284.132 217.711,281.600 217.721 C 279.290 217.729,278.917 217.801,279.979 218.032 M303.600 217.994 C 303.930 218.211,304.635 218.391,305.167 218.394 C 306.451 218.402,306.125 218.175,304.400 217.858 C 303.415 217.677,303.178 217.718,303.600 217.994 M310.400 218.000 C 309.016 218.291,309.014 218.295,310.200 218.341 C 310.860 218.367,311.670 218.213,312.000 218.000 C 312.666 217.570,312.445 217.570,310.400 218.000 M179.072 221.419 C 178.132 223.389,178.264 223.724,179.247 221.862 C 179.693 221.016,179.987 220.254,179.901 220.167 C 179.814 220.081,179.441 220.644,179.072 221.419 M170.200 222.661 C 169.864 223.465,169.682 224.215,169.795 224.328 C 169.908 224.441,170.000 224.435,170.000 224.316 C 170.000 224.196,170.272 223.446,170.605 222.649 C 170.938 221.852,171.121 221.200,171.011 221.200 C 170.901 221.200,170.536 221.858,170.200 222.661 M168.600 226.261 C 168.264 227.065,168.082 227.815,168.195 227.928 C 168.308 228.041,168.400 228.035,168.400 227.916 C 168.400 227.796,168.672 227.046,169.005 226.249 C 169.338 225.452,169.521 224.800,169.411 224.800 C 169.301 224.800,168.936 225.458,168.600 226.261 M176.526 226.998 C 176.075 227.979,175.864 228.684,176.059 228.564 C 176.459 228.316,177.681 225.548,177.479 225.345 C 177.406 225.273,176.978 226.017,176.526 226.998 M126.105 241.487 C 126.714 241.579,127.614 241.577,128.105 241.482 C 128.597 241.387,128.100 241.311,127.000 241.314 C 125.900 241.317,125.497 241.395,126.105 241.487 M205.100 241.482 C 205.595 241.578,206.405 241.578,206.900 241.482 C 207.395 241.387,206.990 241.309,206.000 241.309 C 205.010 241.309,204.605 241.387,205.100 241.482 M96.188 242.087 C 95.430 244.062,96.225 258.203,97.100 258.328 L 98.000 258.456 98.000 251.815 C 98.000 246.293,98.101 245.136,98.598 244.946 C 99.304 244.674,99.004 244.000,98.176 244.000 C 97.696 244.000,97.600 245.172,97.600 251.000 C 97.600 256.956,97.510 258.000,97.000 258.000 C 96.487 258.000,96.400 256.844,96.400 250.000 L 96.400 242.000 97.793 242.000 C 99.067 242.000,99.275 242.175,100.220 244.040 C 100.789 245.162,101.339 245.994,101.444 245.889 C 101.549 245.784,101.121 244.822,100.492 243.749 C 99.293 241.704,96.717 240.709,96.188 242.087 M107.200 248.400 C 107.200 255.160,106.954 256.303,105.996 253.991 C 105.721 253.327,105.335 252.684,105.139 252.562 C 104.943 252.441,105.183 253.167,105.674 254.177 C 107.116 257.145,107.390 256.352,107.509 248.867 C 107.601 243.128,107.716 242.000,108.209 242.000 C 108.710 242.000,108.800 243.212,108.800 250.000 L 108.800 258.000 107.680 258.000 C 107.064 258.000,106.322 257.775,106.030 257.500 C 105.602 257.096,105.535 257.116,105.681 257.600 C 105.796 257.980,106.475 258.245,107.531 258.323 L 109.200 258.446 109.200 250.023 L 109.200 241.600 108.200 241.600 L 107.200 241.600 107.200 248.400 M122.583 242.345 C 121.431 243.048,119.992 244.802,120.007 245.486 C 120.010 245.659,120.379 245.230,120.825 244.533 C 121.272 243.835,122.394 242.891,123.319 242.433 C 124.243 241.975,124.730 241.601,124.400 241.602 C 124.070 241.602,123.252 241.937,122.583 242.345 M129.978 242.041 C 130.517 242.256,131.192 242.627,131.478 242.865 C 131.779 243.115,132.000 243.135,132.000 242.913 C 132.000 242.487,130.237 241.586,129.481 241.625 C 129.217 241.639,129.440 241.827,129.978 242.041 M143.675 242.300 C 143.786 242.884,144.272 243.004,146.604 243.026 L 149.400 243.052 146.700 242.909 C 141.329 242.623,144.001 242.000,150.600 242.000 C 157.210 242.000,159.842 242.617,154.500 242.914 L 151.800 243.064 154.596 243.032 C 156.926 243.005,157.414 242.883,157.525 242.300 C 157.648 241.655,157.107 241.600,150.600 241.600 C 144.093 241.600,143.552 241.655,143.675 242.300 M178.800 250.028 L 178.800 258.456 179.700 258.328 C 180.555 258.206,180.601 258.020,180.626 254.600 L 180.653 251.000 180.511 254.500 C 180.400 257.238,180.242 258.000,179.784 258.000 C 179.291 258.000,179.200 256.750,179.200 250.000 L 179.200 242.000 184.200 242.000 C 190.396 242.000,190.969 242.726,184.900 242.886 L 180.600 243.000 180.478 245.383 C 180.259 249.637,180.223 249.600,184.631 249.600 C 189.608 249.600,189.298 250.371,184.276 250.480 L 180.600 250.561 183.799 250.699 C 187.399 250.855,188.933 250.600,188.697 249.885 C 188.593 249.571,187.212 249.330,184.768 249.200 L 181.000 249.000 180.883 246.114 L 180.766 243.227 185.078 243.114 C 188.814 243.015,189.408 242.906,189.525 242.300 C 189.647 241.661,189.185 241.600,184.229 241.600 L 178.800 241.600 178.800 250.028 M200.872 243.031 C 199.952 243.818,199.200 244.642,199.200 244.862 C 199.200 245.082,199.645 244.732,200.189 244.086 C 200.733 243.439,201.768 242.620,202.489 242.264 C 203.210 241.909,203.517 241.614,203.172 241.609 C 202.827 241.604,201.792 242.244,200.872 243.031 M208.732 241.886 C 209.245 241.984,210.383 242.783,211.262 243.662 C 212.141 244.541,212.665 244.894,212.425 244.447 C 211.802 243.283,209.460 241.590,208.562 241.654 C 207.985 241.696,208.026 241.752,208.732 241.886 M224.000 247.992 C 224.000 255.096,224.241 256.063,226.396 257.597 C 227.061 258.071,227.919 258.376,228.302 258.275 C 228.952 258.105,228.951 258.090,228.286 258.046 C 227.076 257.968,225.518 256.701,224.945 255.331 C 224.144 253.412,224.167 242.000,224.972 242.000 C 225.440 242.000,225.568 243.171,225.672 248.375 L 225.800 254.750 226.933 255.932 C 228.898 257.981,232.558 257.807,233.938 255.600 C 234.533 254.649,234.511 254.654,233.501 255.700 C 231.946 257.310,228.816 257.340,227.200 255.761 C 226.234 254.817,226.193 254.565,226.000 248.292 C 225.804 241.933,225.782 241.797,224.900 241.672 L 224.000 241.544 224.000 247.992 M234.587 242.090 C 234.472 242.390,234.433 245.327,234.500 248.618 L 234.623 254.600 234.712 248.300 C 234.797 242.190,234.825 242.000,235.642 242.000 C 236.469 242.000,236.481 242.115,236.342 248.403 C 236.264 251.924,236.340 254.264,236.512 253.602 C 237.274 250.657,236.671 241.810,235.698 241.672 C 235.202 241.602,234.702 241.789,234.587 242.090 M247.600 250.005 L 247.600 258.456 248.500 258.328 C 249.388 258.202,249.401 258.109,249.510 251.417 C 249.588 246.630,249.764 244.532,250.110 244.287 C 250.464 244.035,250.434 243.984,250.000 244.102 C 249.502 244.238,249.381 245.432,249.291 251.133 C 249.199 256.872,249.084 258.000,248.591 258.000 C 248.090 258.000,248.000 256.788,248.000 250.000 L 248.000 242.000 249.300 242.001 C 250.496 242.003,250.708 242.213,251.952 244.617 C 252.695 246.054,253.375 247.158,253.464 247.070 C 254.253 246.281,250.725 241.790,249.228 241.677 L 247.600 241.554 247.600 250.005 M258.800 247.739 C 258.800 254.939,258.642 255.750,257.512 254.349 L 256.746 253.400 257.233 254.400 C 257.718 255.397,258.331 255.982,258.900 255.994 C 259.065 255.997,259.200 252.850,259.200 249.000 C 259.200 243.044,259.290 242.000,259.800 242.000 C 260.313 242.000,260.400 243.156,260.400 250.000 L 260.400 258.000 259.020 258.000 C 258.127 258.000,257.496 257.753,257.232 257.300 C 257.008 256.915,256.819 256.803,256.812 257.051 C 256.790 257.868,257.926 258.457,259.274 258.327 L 260.600 258.200 260.600 250.000 C 260.600 241.801,260.600 241.800,259.700 241.672 L 258.800 241.544 258.800 247.739 M272.000 250.000 L 272.000 258.400 275.700 258.370 C 280.441 258.331,284.800 256.399,284.800 254.337 C 284.800 254.118,284.312 254.518,283.717 255.226 C 282.013 257.251,279.949 257.981,275.900 257.991 L 272.400 258.000 272.400 249.965 L 272.400 241.929 276.764 242.065 C 279.164 242.139,280.919 242.068,280.664 241.906 C 280.409 241.744,278.355 241.609,276.100 241.606 L 272.000 241.600 272.000 250.000 M125.000 242.819 C 124.424 243.080,124.610 243.117,125.669 242.952 C 127.847 242.612,129.626 243.148,130.976 244.551 C 131.952 245.566,132.061 245.613,131.555 244.800 C 130.351 242.865,127.080 241.877,125.000 242.819 M203.279 243.069 C 202.553 243.427,201.676 244.278,201.331 244.960 C 200.753 246.103,200.814 246.075,202.106 244.600 C 203.451 243.066,203.608 243.000,205.916 243.000 C 207.240 243.000,208.116 242.868,207.862 242.706 C 207.066 242.200,204.656 242.391,203.279 243.069 M282.784 243.448 C 284.205 244.644,285.186 246.339,285.232 247.680 C 285.249 248.186,285.357 248.367,285.471 248.083 C 285.973 246.832,283.206 242.400,281.923 242.400 C 281.711 242.400,282.099 242.871,282.784 243.448 M273.867 243.067 C 273.720 243.213,273.600 246.344,273.600 250.024 C 273.600 257.551,273.467 257.249,276.733 257.135 L 278.600 257.070 276.400 256.835 L 274.200 256.600 274.090 249.918 L 273.981 243.237 276.690 243.097 L 279.400 242.957 276.767 242.878 C 275.318 242.835,274.013 242.920,273.867 243.067 M132.409 243.407 C 132.414 243.623,132.770 244.250,133.200 244.800 C 133.630 245.350,134.007 246.160,134.038 246.600 C 134.083 247.253,134.126 247.274,134.272 246.717 C 134.371 246.341,133.990 245.355,133.426 244.524 C 132.862 243.694,132.404 243.191,132.409 243.407 M151.290 250.500 C 151.214 256.808,151.106 258.000,150.609 258.000 C 150.114 258.000,149.999 256.819,149.899 250.700 L 149.781 243.400 149.690 250.900 C 149.602 258.202,149.621 258.400,150.413 258.400 C 151.590 258.400,151.631 258.088,151.500 250.187 L 151.380 243.000 151.290 250.500 M209.450 244.047 C 211.387 246.218,212.133 251.481,210.861 254.000 C 210.399 254.915,210.407 254.937,210.955 254.255 C 212.810 251.948,211.844 245.071,209.460 243.619 L 208.600 243.095 209.450 244.047 M280.678 243.982 C 282.795 245.273,283.378 246.550,283.378 249.899 C 283.378 252.083,283.464 252.568,283.702 251.734 C 284.610 248.563,282.247 243.195,279.947 243.201 C 279.646 243.202,279.975 243.554,280.678 243.982 M250.400 244.909 C 250.400 245.282,252.856 249.748,253.309 250.200 C 253.530 250.420,253.041 249.340,252.222 247.800 C 250.718 244.972,250.400 244.468,250.400 244.909 M213.044 246.600 C 213.373 248.071,213.602 248.390,213.594 247.367 C 213.591 246.945,213.405 246.330,213.182 246.000 C 212.885 245.562,212.848 245.724,213.044 246.600 M119.449 246.615 C 119.312 246.973,119.223 247.836,119.250 248.533 C 119.292 249.587,119.350 249.498,119.599 248.000 C 119.917 246.086,119.859 245.548,119.449 246.615 M132.046 246.400 C 132.065 246.730,132.224 247.450,132.400 248.000 L 132.720 249.000 132.754 248.000 C 132.773 247.450,132.613 246.730,132.400 246.400 C 132.055 245.867,132.016 245.867,132.046 246.400 M200.252 247.300 C 198.383 254.273,204.622 260.267,209.441 256.129 L 210.600 255.134 209.230 256.044 C 204.728 259.035,200.616 256.010,200.606 249.700 C 200.599 246.050,200.595 246.020,200.252 247.300 M101.000 248.800 C 101.557 249.900,102.103 250.800,102.213 250.800 C 102.323 250.800,101.957 249.900,101.400 248.800 C 100.843 247.700,100.297 246.800,100.187 246.800 C 100.077 246.800,100.443 247.700,101.000 248.800 M121.132 248.100 C 120.914 252.276,121.912 255.515,123.701 256.436 L 124.600 256.899 123.704 256.038 C 122.078 254.475,121.511 252.845,121.511 249.734 C 121.511 246.778,121.258 245.687,121.132 248.100 M134.528 250.000 C 134.528 251.430,134.601 252.015,134.689 251.300 C 134.778 250.585,134.778 249.415,134.689 248.700 C 134.601 247.985,134.528 248.570,134.528 250.000 M254.620 249.640 C 255.189 250.762,255.734 251.599,255.833 251.501 C 256.023 251.310,254.051 247.600,253.759 247.600 C 253.664 247.600,254.052 248.518,254.620 249.640 M103.440 250.002 C 104.039 251.103,104.593 251.940,104.671 251.863 C 104.843 251.690,102.808 248.000,102.541 248.000 C 102.436 248.000,102.840 248.901,103.440 250.002 M198.109 250.000 C 198.109 250.990,198.187 251.395,198.282 250.900 C 198.378 250.405,198.378 249.595,198.282 249.100 C 198.187 248.605,198.109 249.010,198.109 250.000 M119.250 251.451 C 119.128 254.491,122.452 258.446,125.074 258.382 C 125.473 258.373,125.108 258.118,124.262 257.817 C 121.515 256.837,120.199 255.141,119.591 251.800 C 119.324 250.329,119.296 250.301,119.250 251.451 M285.254 251.467 C 285.225 251.944,285.096 252.664,284.970 253.067 C 284.752 253.761,284.764 253.762,285.196 253.088 C 285.447 252.697,285.575 251.977,285.481 251.488 C 285.309 250.601,285.309 250.601,285.254 251.467 M102.406 251.250 C 102.397 251.605,104.433 255.200,104.642 255.200 C 104.738 255.200,104.460 254.525,104.024 253.700 C 103.078 251.911,102.415 250.906,102.406 251.250 M132.273 252.394 C 132.113 253.161,131.427 254.480,130.748 255.325 C 129.796 256.510,129.709 256.740,130.368 256.330 C 131.400 255.689,132.920 252.695,132.713 251.709 C 132.623 251.277,132.451 251.545,132.273 252.394 M198.406 252.633 C 198.409 253.055,198.595 253.670,198.818 254.000 C 199.115 254.438,199.152 254.276,198.956 253.400 C 198.627 251.929,198.398 251.610,198.406 252.633 M213.245 252.600 C 213.185 253.602,211.816 255.879,210.669 256.884 L 209.800 257.645 210.687 257.215 C 211.813 256.670,213.722 253.451,213.478 252.511 C 213.318 251.898,213.286 251.910,213.245 252.600 M255.400 254.400 C 255.957 255.500,256.503 256.400,256.613 256.400 C 256.723 256.400,256.357 255.500,255.800 254.400 C 255.243 253.300,254.697 252.400,254.587 252.400 C 254.477 252.400,254.843 253.300,255.400 254.400 M133.676 254.141 C 133.064 255.833,131.681 257.124,129.738 257.817 C 128.892 258.118,128.524 258.373,128.920 258.382 C 130.622 258.424,133.578 255.959,134.209 253.972 C 134.651 252.580,134.187 252.727,133.676 254.141 M282.033 254.440 C 281.533 255.117,280.556 255.918,279.862 256.220 C 279.168 256.522,278.834 256.776,279.120 256.784 C 280.059 256.813,281.868 255.661,282.573 254.586 C 283.556 253.084,283.123 252.967,282.033 254.440 M199.945 255.888 C 200.830 257.166,201.542 257.809,201.774 257.540 C 201.840 257.463,201.255 256.770,200.474 256.000 L 199.053 254.600 199.945 255.888 M234.834 256.553 L 233.869 257.800 235.013 256.712 C 235.643 256.114,236.077 255.553,235.979 255.465 C 235.880 255.377,235.365 255.867,234.834 256.553 M125.813 257.254 C 126.480 257.432,127.560 257.431,128.213 257.253 C 129.170 256.991,128.936 256.928,127.000 256.930 C 125.045 256.931,124.825 256.991,125.813 257.254 " stroke="none" fill="#9f9b9b" fill-rule="evenodd"></path><path id="path5" d="M309.035 145.281 L 304.600 149.762 309.040 145.481 C 313.731 140.959,314.337 140.663,315.974 142.100 L 317.000 143.000 316.030 141.900 C 314.473 140.133,313.816 140.450,309.035 145.281 M290.155 156.200 C 290.156 159.060,290.220 160.178,290.297 158.683 C 290.374 157.189,290.374 154.849,290.296 153.483 C 290.218 152.118,290.155 153.340,290.155 156.200 M308.793 166.900 C 312.687 170.894,313.200 171.382,313.200 171.093 C 313.200 171.034,311.265 169.099,308.900 166.793 L 304.600 162.600 308.793 166.900 M305.996 185.518 L 306.192 188.600 306.316 185.840 C 306.384 184.321,306.295 182.935,306.120 182.758 C 305.944 182.581,305.888 183.823,305.996 185.518 M118.667 189.067 C 118.297 189.437,118.329 217.109,118.700 217.338 C 118.865 217.440,119.000 211.061,119.000 203.162 C 119.000 195.263,118.985 188.800,118.967 188.800 C 118.948 188.800,118.813 188.920,118.667 189.067 M313.740 192.400 C 313.740 194.270,313.809 195.035,313.893 194.100 C 313.977 193.165,313.977 191.635,313.893 190.700 C 313.809 189.765,313.740 190.530,313.740 192.400 M161.750 190.187 C 161.626 190.510,161.617 191.005,161.731 191.287 C 161.844 191.569,161.951 191.376,161.968 190.857 C 161.991 190.176,162.172 189.980,162.621 190.153 C 162.977 190.289,163.137 190.222,162.997 189.995 C 162.639 189.416,162.008 189.513,161.750 190.187 M294.080 190.480 C 293.560 191.000,293.408 195.434,293.900 195.739 C 294.065 195.842,294.139 194.856,294.064 193.548 C 293.980 192.079,294.113 190.946,294.413 190.585 C 294.997 189.881,294.755 189.805,294.080 190.480 M306.161 202.400 C 306.161 205.810,306.222 207.205,306.297 205.500 C 306.372 203.795,306.372 201.005,306.297 199.300 C 306.222 197.595,306.161 198.990,306.161 202.400 M237.999 209.281 C 237.890 213.835,237.939 217.422,238.109 217.252 C 238.278 217.082,238.368 213.356,238.308 208.971 L 238.198 201.000 237.999 209.281 M238.909 203.200 C 238.909 204.190,238.987 204.595,239.082 204.100 C 239.178 203.605,239.178 202.795,239.082 202.300 C 238.987 201.805,238.909 202.210,238.909 203.200 M313.734 214.400 C 313.734 216.050,313.805 216.725,313.891 215.900 C 313.978 215.075,313.978 213.725,313.891 212.900 C 313.805 212.075,313.734 212.750,313.734 214.400 M243.200 213.800 C 243.946 214.570,244.647 215.200,244.757 215.200 C 244.867 215.200,244.346 214.570,243.600 213.800 C 242.854 213.030,242.153 212.400,242.043 212.400 C 241.933 212.400,242.454 213.030,243.200 213.800 M264.175 214.100 L 263.000 215.400 264.300 214.225 C 265.015 213.579,265.600 212.994,265.600 212.925 C 265.600 212.616,265.270 212.888,264.175 214.100 M306.500 218.687 C 307.105 218.778,308.095 218.778,308.700 218.687 C 309.305 218.595,308.810 218.520,307.600 218.520 C 306.390 218.520,305.895 218.595,306.500 218.687 M167.762 228.490 C 167.943 229.389,175.741 229.410,176.421 228.513 C 176.882 227.905,176.879 227.873,176.401 228.300 C 175.705 228.920,168.166 229.000,167.863 228.390 C 167.751 228.165,167.706 228.210,167.762 228.490 M258.563 248.000 C 258.563 251.630,258.623 253.115,258.698 251.300 C 258.772 249.485,258.772 246.515,258.698 244.700 C 258.623 242.885,258.563 244.370,258.563 248.000 M109.369 250.000 C 109.369 254.510,109.427 256.355,109.498 254.100 C 109.570 251.845,109.570 248.155,109.498 245.900 C 109.427 243.645,109.369 245.490,109.369 250.000 M178.569 250.000 C 178.569 254.510,178.627 256.355,178.698 254.100 C 178.770 251.845,178.770 248.155,178.698 245.900 C 178.627 243.645,178.569 245.490,178.569 250.000 M247.369 250.000 C 247.369 254.510,247.427 256.355,247.498 254.100 C 247.570 251.845,247.570 248.155,247.498 245.900 C 247.427 243.645,247.369 245.490,247.369 250.000 M282.400 242.525 C 282.400 242.594,282.985 243.179,283.700 243.825 L 285.000 245.000 283.825 243.700 C 282.730 242.488,282.400 242.216,282.400 242.525 M98.177 245.317 C 98.068 245.601,98.033 248.616,98.100 252.017 L 98.222 258.200 98.311 251.733 C 98.376 247.003,98.534 245.212,98.900 245.065 C 99.292 244.907,99.289 244.856,98.887 244.832 C 98.606 244.814,98.286 245.033,98.177 245.317 M134.914 249.800 C 134.917 250.900,134.995 251.303,135.087 250.695 C 135.179 250.086,135.177 249.186,135.082 248.695 C 134.987 248.203,134.911 248.700,134.914 249.800 M285.709 249.600 C 285.709 250.590,285.787 250.995,285.882 250.500 C 285.978 250.005,285.978 249.195,285.882 248.700 C 285.787 248.205,285.709 248.610,285.709 249.600 M283.301 249.800 C 283.305 250.680,283.387 250.993,283.483 250.495 C 283.579 249.998,283.575 249.278,283.475 248.895 C 283.375 248.513,283.296 248.920,283.301 249.800 M118.893 250.000 C 118.893 250.770,118.975 251.085,119.076 250.700 C 119.176 250.315,119.176 249.685,119.076 249.300 C 118.975 248.915,118.893 249.230,118.893 250.000 M132.493 250.000 C 132.493 250.770,132.575 251.085,132.676 250.700 C 132.776 250.315,132.776 249.685,132.676 249.300 C 132.575 248.915,132.493 249.230,132.493 250.000 M182.200 249.054 C 185.028 249.350,188.712 249.377,188.539 249.100 C 188.437 248.935,186.698 248.829,184.676 248.864 C 182.654 248.899,181.540 248.985,182.200 249.054 M126.105 258.687 C 126.714 258.779,127.614 258.777,128.105 258.682 C 128.597 258.587,128.100 258.511,127.000 258.514 C 125.900 258.517,125.497 258.595,126.105 258.687 M205.100 258.682 C 205.595 258.778,206.405 258.778,206.900 258.682 C 207.395 258.587,206.990 258.509,206.000 258.509 C 205.010 258.509,204.605 258.587,205.100 258.682 M229.305 258.687 C 229.914 258.779,230.814 258.777,231.305 258.682 C 231.797 258.587,231.300 258.511,230.200 258.514 C 229.100 258.517,228.697 258.595,229.305 258.687 " stroke="none" fill="#b1bcb6" fill-rule="evenodd"></path><path id="path6" d="M208.586 196.400 C 208.586 207.950,208.637 212.675,208.700 206.900 C 208.762 201.125,208.762 191.675,208.700 185.900 C 208.637 180.125,208.586 184.850,208.586 196.400 M92.316 176.297 C 93.699 176.375,95.859 176.374,97.116 176.295 C 98.372 176.216,97.240 176.152,94.600 176.153 C 91.960 176.153,90.932 176.218,92.316 176.297 M300.300 182.293 C 301.235 182.377,302.765 182.377,303.700 182.293 C 304.635 182.209,303.870 182.140,302.000 182.140 C 300.130 182.140,299.365 182.209,300.300 182.293 M297.734 185.600 C 297.734 187.250,297.805 187.925,297.891 187.100 C 297.978 186.275,297.978 184.925,297.891 184.100 C 297.805 183.275,297.734 183.950,297.734 185.600 M156.900 195.476 C 157.285 195.576,157.915 195.576,158.300 195.476 C 158.685 195.375,158.370 195.293,157.600 195.293 C 156.830 195.293,156.515 195.375,156.900 195.476 M297.599 203.119 L 297.798 210.200 297.909 203.430 C 297.970 199.706,297.880 196.520,297.710 196.349 C 297.539 196.178,297.490 199.224,297.599 203.119 M238.643 201.433 C 238.310 202.301,238.348 204.499,238.706 205.062 C 238.868 205.316,239.000 204.461,239.000 203.162 C 239.000 200.561,238.992 200.523,238.643 201.433 M126.969 209.200 C 126.969 213.710,127.027 215.555,127.098 213.300 C 127.170 211.045,127.170 207.355,127.098 205.100 C 127.027 202.845,126.969 204.690,126.969 209.200 M148.967 209.600 C 148.967 213.890,149.026 215.645,149.098 213.500 C 149.170 211.355,149.170 207.845,149.098 205.700 C 149.026 203.555,148.967 205.310,148.967 209.600 M230.166 210.000 C 230.166 214.070,230.225 215.735,230.298 213.700 C 230.371 211.665,230.371 208.335,230.298 206.300 C 230.225 204.265,230.166 205.930,230.166 210.000 M97.105 241.483 C 97.602 241.579,98.322 241.575,98.705 241.475 C 99.087 241.375,98.680 241.296,97.800 241.301 C 96.920 241.305,96.607 241.387,97.105 241.483 M146.880 241.498 C 148.794 241.571,152.034 241.571,154.080 241.498 C 156.126 241.426,154.560 241.366,150.600 241.365 C 146.640 241.365,144.966 241.424,146.880 241.498 M181.700 241.497 C 183.185 241.574,185.615 241.574,187.100 241.497 C 188.585 241.420,187.370 241.357,184.400 241.357 C 181.430 241.357,180.215 241.420,181.700 241.497 M248.500 241.476 C 248.885 241.576,249.515 241.576,249.900 241.476 C 250.285 241.375,249.970 241.293,249.200 241.293 C 248.430 241.293,248.115 241.375,248.500 241.476 M273.700 241.494 C 274.745 241.576,276.455 241.576,277.500 241.494 C 278.545 241.412,277.690 241.344,275.600 241.344 C 273.510 241.344,272.655 241.412,273.700 241.494 M226.157 246.800 C 226.157 249.770,226.220 250.985,226.297 249.500 C 226.374 248.015,226.374 245.585,226.297 244.100 C 226.220 242.615,226.157 243.830,226.157 246.800 M223.758 247.400 C 223.758 250.480,223.821 251.687,223.897 250.082 C 223.973 248.478,223.973 245.958,223.896 244.482 C 223.819 243.007,223.757 244.320,223.758 247.400 M271.769 250.000 C 271.769 254.510,271.827 256.355,271.898 254.100 C 271.970 251.845,271.970 248.155,271.898 245.900 C 271.827 243.645,271.769 245.490,271.769 250.000 M149.199 250.719 L 149.398 258.200 149.509 251.030 C 149.569 247.086,149.480 243.719,149.310 243.549 C 149.139 243.378,149.090 246.605,149.199 250.719 M151.778 243.714 C 151.669 243.997,151.630 247.372,151.691 251.214 L 151.802 258.200 152.001 250.700 C 152.196 243.340,152.175 242.678,151.778 243.714 M274.176 243.718 C 274.067 244.002,274.028 246.927,274.090 250.218 L 274.203 256.200 274.402 249.699 C 274.597 243.309,274.573 242.684,274.176 243.718 M197.709 250.000 C 197.709 250.990,197.787 251.395,197.882 250.900 C 197.978 250.405,197.978 249.595,197.882 249.100 C 197.787 248.605,197.709 249.010,197.709 250.000 M185.003 250.699 C 183.025 250.773,181.278 250.961,181.121 251.117 C 180.964 251.273,182.493 251.343,184.518 251.273 C 186.543 251.203,188.371 250.978,188.580 250.773 C 188.789 250.568,188.879 250.437,188.780 250.482 C 188.681 250.527,186.981 250.625,185.003 250.699 M275.500 256.682 C 275.995 256.778,276.805 256.778,277.300 256.682 C 277.795 256.587,277.390 256.509,276.400 256.509 C 275.410 256.509,275.005 256.587,275.500 256.682 " stroke="none" fill="#d0c8c8" fill-rule="evenodd"></path><path id="path7" d="M294.000 132.646 C 288.453 133.298,281.095 137.378,281.749 139.439 C 281.890 139.884,284.136 142.352,286.740 144.924 L 291.474 149.600 297.201 149.600 L 302.929 149.600 307.864 144.720 C 313.306 139.341,313.442 139.047,311.348 137.208 C 307.552 133.875,300.135 131.925,294.000 132.646 M303.002 133.743 C 307.325 134.894,312.000 137.692,312.000 139.127 C 312.000 139.490,309.978 141.815,307.507 144.294 L 303.013 148.800 297.245 148.800 L 291.477 148.800 286.939 144.322 C 281.885 139.336,281.740 138.990,283.968 137.225 C 288.384 133.728,297.017 132.149,303.002 133.743 M286.279 167.937 C 283.318 170.934,281.600 172.980,281.600 173.508 C 281.600 174.998,286.688 178.368,289.889 178.998 L 291.000 179.217 290.000 178.755 C 289.450 178.501,288.093 177.887,286.984 177.391 C 281.137 174.777,281.119 173.690,286.828 168.007 L 291.257 163.600 297.207 163.600 L 303.157 163.600 307.779 168.221 C 310.320 170.763,312.400 172.999,312.400 173.191 C 312.400 174.513,309.228 176.709,304.400 178.728 C 303.718 179.013,303.617 179.154,304.082 179.173 C 305.097 179.213,309.645 176.942,311.329 175.554 C 313.600 173.683,313.383 173.169,308.094 167.894 L 303.388 163.200 297.173 163.200 L 290.957 163.200 286.279 167.937 M291.800 179.600 C 292.240 179.789,293.320 179.936,294.200 179.926 L 295.800 179.908 294.200 179.577 C 293.320 179.395,292.240 179.248,291.800 179.251 L 291.000 179.256 291.800 179.600 M300.000 179.600 L 298.600 179.895 300.200 179.919 C 301.080 179.933,302.160 179.789,302.600 179.600 C 303.642 179.152,302.126 179.152,300.000 179.600 " stroke="none" fill="#fcc4a8" fill-rule="evenodd"></path><path id="path8" d="M309.107 144.700 C 306.702 147.065,304.569 149.301,304.369 149.670 C 304.168 150.038,305.938 148.349,308.302 145.917 C 310.666 143.485,313.140 141.255,313.800 140.963 C 314.652 140.585,314.780 140.427,314.240 140.416 C 313.799 140.407,311.645 142.204,309.107 144.700 M285.263 145.479 C 287.868 148.052,290.014 150.437,290.032 150.779 C 290.056 151.253,290.114 151.271,290.280 150.855 C 290.474 150.367,281.424 140.800,280.769 140.800 C 280.635 140.800,282.658 142.905,285.263 145.479 M286.000 144.600 C 288.081 146.690,289.874 148.400,289.984 148.400 C 290.094 148.400,288.481 146.690,286.400 144.600 C 284.319 142.510,282.526 140.800,282.416 140.800 C 282.306 140.800,283.919 142.510,286.000 144.600 M307.792 144.900 L 303.800 149.000 307.900 145.008 C 310.155 142.812,312.000 140.967,312.000 140.908 C 312.000 140.618,311.501 141.092,307.792 144.900 M317.310 143.696 C 318.240 145.114,319.068 146.219,319.151 146.152 C 319.362 145.983,316.883 142.167,316.189 141.590 C 315.876 141.331,316.381 142.279,317.310 143.696 M277.537 142.700 C 276.231 144.257,274.835 147.073,275.605 146.597 C 275.822 146.463,276.000 146.171,276.000 145.948 C 276.000 145.726,276.549 144.747,277.219 143.772 C 278.450 141.984,278.620 141.408,277.537 142.700 M319.421 147.400 C 319.570 147.840,319.836 148.799,320.011 149.532 C 320.187 150.264,320.438 150.971,320.569 151.103 C 321.007 151.540,320.296 148.616,319.718 147.600 C 319.370 146.989,319.255 146.911,319.421 147.400 M273.829 150.629 C 273.681 151.215,273.651 151.784,273.761 151.894 C 273.871 152.004,274.081 151.615,274.229 151.029 C 274.376 150.442,274.406 149.873,274.296 149.763 C 274.186 149.653,273.976 150.042,273.829 150.629 M292.600 151.341 C 291.890 151.869,291.800 152.400,291.800 156.068 C 291.800 161.938,291.470 161.600,297.197 161.600 L 302.020 161.600 302.441 160.500 C 302.918 159.256,302.778 151.843,302.268 151.332 C 301.619 150.684,293.475 150.691,292.600 151.341 M303.688 156.334 L 303.600 162.067 308.257 166.825 C 314.256 172.952,314.815 173.133,317.171 169.693 C 318.360 167.957,318.184 168.105,315.972 170.700 C 314.565 172.352,313.710 171.900,308.718 166.865 L 304.023 162.129 303.899 156.365 L 303.776 150.600 303.688 156.334 M320.840 153.233 C 320.862 154.205,321.025 155.450,321.202 156.000 C 321.395 156.600,321.437 155.960,321.306 154.400 C 321.051 151.362,320.782 150.689,320.840 153.233 M273.334 156.400 C 273.334 158.050,273.405 158.725,273.491 157.900 C 273.578 157.075,273.578 155.725,273.491 154.900 C 273.405 154.075,273.334 154.750,273.334 156.400 M320.721 159.400 C 320.571 160.720,320.344 162.340,320.218 163.000 C 320.092 163.660,320.272 163.331,320.616 162.268 C 320.961 161.205,321.187 159.585,321.119 158.668 C 321.004 157.110,320.977 157.159,320.721 159.400 M273.656 160.800 C 273.656 161.130,273.811 161.760,274.000 162.200 C 274.217 162.704,274.344 162.778,274.344 162.400 C 274.344 162.070,274.189 161.440,274.000 161.000 C 273.783 160.496,273.656 160.422,273.656 160.800 M290.000 161.993 C 290.000 162.283,288.068 164.518,285.708 166.960 L 281.415 171.400 285.535 167.400 C 289.620 163.433,290.680 162.147,290.232 161.699 C 290.105 161.571,290.000 161.704,290.000 161.993 M319.000 165.861 C 318.664 166.665,318.482 167.415,318.595 167.528 C 318.708 167.641,318.800 167.635,318.800 167.516 C 318.800 167.396,319.072 166.646,319.405 165.849 C 319.738 165.052,319.921 164.400,319.811 164.400 C 319.701 164.400,319.336 165.058,319.000 165.861 M278.370 170.937 C 279.355 172.017,280.554 172.322,280.997 171.605 C 281.140 171.374,280.971 171.313,280.592 171.458 C 280.217 171.602,279.405 171.320,278.671 170.791 L 277.400 169.873 278.370 170.937 M208.669 175.086 C 208.562 175.259,210.347 175.343,212.637 175.274 L 216.800 175.149 216.800 182.551 C 216.800 189.889,217.002 191.039,218.055 189.696 C 218.547 189.068,218.532 189.053,217.909 189.542 C 217.260 190.050,217.211 189.621,217.109 182.542 L 217.000 175.000 212.932 174.886 C 210.695 174.824,208.776 174.914,208.669 175.086 M296.100 180.287 C 296.705 180.378,297.695 180.378,298.300 180.287 C 298.905 180.195,298.410 180.120,297.200 180.120 C 295.990 180.120,295.495 180.195,296.100 180.287 M133.891 187.889 C 134.601 187.977,135.861 187.979,136.691 187.892 C 137.521 187.805,136.940 187.733,135.400 187.731 C 133.860 187.729,133.181 187.800,133.891 187.889 M156.100 187.891 C 156.925 187.978,158.275 187.978,159.100 187.891 C 159.925 187.805,159.250 187.734,157.600 187.734 C 155.950 187.734,155.275 187.805,156.100 187.891 M223.111 187.893 C 224.051 187.978,225.491 187.977,226.311 187.891 C 227.130 187.805,226.360 187.736,224.600 187.737 C 222.840 187.739,222.170 187.809,223.111 187.893 M252.300 187.893 C 253.235 187.977,254.765 187.977,255.700 187.893 C 256.635 187.809,255.870 187.740,254.000 187.740 C 252.130 187.740,251.365 187.809,252.300 187.893 M280.307 187.890 C 281.026 187.979,282.106 187.977,282.707 187.886 C 283.308 187.795,282.720 187.722,281.400 187.724 C 280.080 187.726,279.588 187.801,280.307 187.890 M139.424 188.567 C 140.160 189.106,140.210 189.866,140.400 203.467 L 140.600 217.800 144.565 217.915 C 146.745 217.979,148.672 217.889,148.846 217.715 C 149.021 217.542,147.282 217.457,144.982 217.526 L 140.800 217.651 140.800 203.241 L 140.800 188.830 144.300 188.685 L 147.800 188.540 143.909 188.545 C 141.768 188.548,139.893 188.427,139.742 188.275 C 139.591 188.124,139.282 188.000,139.057 188.000 C 138.831 188.000,138.996 188.255,139.424 188.567 M161.337 188.494 C 161.591 188.656,163.960 188.762,166.600 188.730 C 171.911 188.666,171.183 188.483,164.937 188.311 C 162.702 188.250,161.082 188.332,161.337 188.494 M306.755 188.517 C 306.931 188.692,308.588 188.780,310.437 188.714 L 313.800 188.594 310.118 188.397 C 308.093 188.289,306.580 188.343,306.755 188.517 M120.500 188.694 C 121.545 188.776,123.255 188.776,124.300 188.694 C 125.345 188.612,124.490 188.544,122.400 188.544 C 120.310 188.544,119.455 188.612,120.500 188.694 M187.715 188.696 C 188.988 188.776,190.968 188.775,192.115 188.694 C 193.262 188.614,192.220 188.549,189.800 188.550 C 187.380 188.551,186.442 188.616,187.715 188.696 M274.395 190.100 C 273.479 190.815,272.373 192.030,271.938 192.800 C 271.331 193.874,271.315 193.967,271.869 193.200 C 272.834 191.865,274.375 190.344,275.600 189.517 C 276.150 189.146,276.479 188.833,276.331 188.821 C 276.183 188.809,275.312 189.385,274.395 190.100 M314.144 192.400 C 314.144 194.490,314.212 195.345,314.294 194.300 C 314.376 193.255,314.376 191.545,314.294 190.500 C 314.212 189.455,314.144 190.310,314.144 192.400 M118.180 203.200 C 118.180 211.010,118.234 214.205,118.299 210.300 C 118.365 206.395,118.365 200.005,118.299 196.100 C 118.234 192.195,118.180 195.390,118.180 203.200 M126.460 190.076 C 126.391 191.313,127.053 191.908,127.735 191.221 C 128.089 190.864,128.041 190.813,127.530 191.008 C 127.018 191.202,126.819 190.994,126.690 190.131 L 126.520 189.000 126.460 190.076 M293.324 193.000 C 293.326 194.320,293.401 194.812,293.490 194.093 C 293.579 193.374,293.577 192.294,293.486 191.693 C 293.395 191.092,293.322 191.680,293.324 193.000 M161.701 193.800 C 161.705 194.680,161.787 194.993,161.883 194.495 C 161.979 193.998,161.975 193.278,161.875 192.895 C 161.775 192.513,161.696 192.920,161.701 193.800 M253.300 195.476 C 253.685 195.576,254.315 195.576,254.700 195.476 C 255.085 195.375,254.770 195.293,254.000 195.293 C 253.230 195.293,252.915 195.375,253.300 195.476 M281.105 195.483 C 281.602 195.579,282.322 195.575,282.705 195.475 C 283.087 195.375,282.680 195.296,281.800 195.301 C 280.920 195.305,280.607 195.387,281.105 195.483 M80.865 196.617 C 80.195 198.088,80.323 198.402,81.047 197.065 C 81.386 196.440,81.588 195.854,81.496 195.763 C 81.405 195.671,81.121 196.056,80.865 196.617 M225.400 196.067 C 226.906 196.900,228.106 198.200,228.844 199.800 C 229.250 200.680,229.586 201.166,229.591 200.880 C 229.616 199.425,226.328 195.581,225.086 195.612 C 224.819 195.619,224.960 195.823,225.400 196.067 M284.488 196.613 C 285.086 197.243,285.647 197.677,285.735 197.579 C 285.823 197.480,285.333 196.965,284.647 196.434 L 283.400 195.469 284.488 196.613 M249.578 197.500 L 248.200 199.000 249.796 197.600 C 250.673 196.830,251.468 196.155,251.562 196.100 C 251.656 196.045,251.559 196.000,251.345 196.000 C 251.132 196.000,250.337 196.675,249.578 197.500 M294.700 196.282 C 295.195 196.378,296.005 196.378,296.500 196.282 C 296.995 196.187,296.590 196.109,295.600 196.109 C 294.610 196.109,294.205 196.187,294.700 196.282 M308.512 196.295 C 309.564 196.377,311.184 196.376,312.112 196.292 C 313.040 196.208,312.180 196.141,310.200 196.142 C 308.220 196.143,307.460 196.212,308.512 196.295 M268.067 197.620 C 268.301 198.292,268.567 198.767,268.657 198.676 C 268.856 198.478,268.101 196.400,267.831 196.400 C 267.727 196.400,267.833 196.949,268.067 197.620 M279.200 197.376 C 279.200 197.913,279.347 198.444,279.528 198.555 C 279.708 198.667,279.777 198.227,279.682 197.579 C 279.472 196.149,279.200 196.035,279.200 197.376 M98.028 197.000 C 98.028 197.220,98.286 197.850,98.600 198.400 C 98.914 198.950,99.172 199.220,99.172 199.000 C 99.172 198.780,98.914 198.150,98.600 197.600 C 98.286 197.050,98.028 196.780,98.028 197.000 M180.065 199.417 C 179.395 200.888,179.523 201.202,180.247 199.865 C 180.586 199.240,180.788 198.654,180.696 198.563 C 180.605 198.471,180.321 198.856,180.065 199.417 M238.803 199.800 C 238.752 200.841,238.698 200.894,238.400 200.200 C 238.173 199.673,238.049 199.604,238.034 200.000 C 238.022 200.330,238.177 200.861,238.379 201.179 C 238.809 201.859,239.429 200.011,239.071 199.117 C 238.957 198.833,238.836 199.140,238.803 199.800 M89.953 200.514 C 90.126 200.687,92.233 200.776,94.634 200.712 L 99.000 200.596 94.318 200.398 C 91.744 200.289,89.779 200.341,89.953 200.514 M247.324 203.400 C 247.326 204.720,247.401 205.212,247.490 204.493 C 247.579 203.774,247.577 202.694,247.486 202.093 C 247.395 201.492,247.322 202.080,247.324 203.400 M216.891 209.526 L 216.800 217.651 212.637 217.526 C 210.347 217.457,208.558 217.535,208.661 217.700 C 209.003 218.251,216.805 218.053,217.021 217.488 C 217.130 217.207,217.165 213.472,217.100 209.188 L 216.982 201.400 216.891 209.526 M260.514 203.400 C 260.517 204.500,260.595 204.903,260.687 204.295 C 260.779 203.686,260.777 202.786,260.682 202.295 C 260.587 201.803,260.511 202.300,260.514 203.400 M291.855 204.600 C 292.780 206.179,292.800 206.203,292.800 205.711 C 292.800 205.479,292.429 204.864,291.976 204.344 L 291.153 203.400 291.855 204.600 M238.482 211.000 L 238.540 217.400 238.797 211.600 C 238.939 208.410,238.913 205.530,238.739 205.200 C 238.566 204.870,238.450 207.480,238.482 211.000 M90.522 209.099 C 92.899 209.170,96.679 209.169,98.922 209.098 C 101.165 209.027,99.220 208.969,94.600 208.969 C 89.980 208.970,88.145 209.028,90.522 209.099 M113.628 209.800 C 113.628 210.020,113.886 210.650,114.200 211.200 C 114.514 211.750,114.772 212.020,114.772 211.800 C 114.772 211.580,114.514 210.950,114.200 210.400 C 113.886 209.850,113.628 209.580,113.628 209.800 M253.300 211.076 C 253.685 211.176,254.315 211.176,254.700 211.076 C 255.085 210.975,254.770 210.893,254.000 210.893 C 253.230 210.893,252.915 210.975,253.300 211.076 M280.105 211.087 C 280.714 211.179,281.614 211.177,282.105 211.082 C 282.597 210.987,282.100 210.911,281.000 210.914 C 279.900 210.917,279.497 210.995,280.105 211.087 M309.700 211.087 C 310.305 211.178,311.295 211.178,311.900 211.087 C 312.505 210.995,312.010 210.920,310.800 210.920 C 309.590 210.920,309.095 210.995,309.700 211.087 M313.800 214.400 C 313.800 216.338,313.935 217.840,314.100 217.738 C 314.265 217.636,314.400 216.134,314.400 214.400 C 314.400 212.666,314.265 211.164,314.100 211.062 C 313.935 210.960,313.800 212.462,313.800 214.400 M229.673 214.020 C 229.578 217.948,229.663 218.018,234.380 217.923 L 238.200 217.845 234.200 217.623 L 230.200 217.400 229.973 214.200 L 229.747 211.000 229.673 214.020 M195.709 213.600 C 195.709 214.590,195.787 214.995,195.882 214.500 C 195.978 214.005,195.978 213.195,195.882 212.700 C 195.787 212.205,195.709 212.610,195.709 213.600 M204.914 213.800 C 204.917 214.900,204.995 215.303,205.087 214.695 C 205.179 214.086,205.177 213.186,205.082 212.695 C 204.987 212.203,204.911 212.700,204.914 213.800 M291.052 214.100 C 290.175 215.290,289.915 215.820,290.452 215.324 C 291.297 214.543,293.035 211.999,292.723 212.000 C 292.655 212.001,291.903 212.946,291.052 214.100 M264.581 214.100 L 263.000 215.800 264.700 214.219 C 265.635 213.349,266.400 212.584,266.400 212.519 C 266.400 212.216,266.052 212.519,264.581 214.100 M172.865 215.417 C 172.195 216.888,172.323 217.202,173.047 215.865 C 173.386 215.240,173.588 214.654,173.496 214.563 C 173.405 214.471,173.121 214.856,172.865 215.417 M299.200 215.325 C 299.200 215.394,299.785 215.979,300.500 216.625 L 301.800 217.800 300.625 216.500 C 299.530 215.288,299.200 215.016,299.200 215.325 M72.528 217.000 C 72.614 217.842,81.665 218.492,82.448 217.713 C 82.621 217.541,80.536 217.455,77.815 217.522 C 73.329 217.633,72.848 217.577,72.657 216.922 C 72.482 216.323,72.460 216.336,72.528 217.000 M109.516 217.897 C 110.899 217.975,113.059 217.974,114.316 217.895 C 115.572 217.816,114.440 217.752,111.800 217.753 C 109.160 217.753,108.132 217.818,109.516 217.897 M120.713 217.895 C 121.876 217.976,123.676 217.976,124.713 217.893 C 125.751 217.811,124.800 217.745,122.600 217.746 C 120.400 217.747,119.551 217.814,120.713 217.895 M252.700 218.689 C 253.415 218.778,254.585 218.778,255.300 218.689 C 256.015 218.601,255.430 218.528,254.000 218.528 C 252.570 218.528,251.985 218.601,252.700 218.689 M280.505 218.687 C 281.114 218.779,282.014 218.777,282.505 218.682 C 282.997 218.587,282.500 218.511,281.400 218.514 C 280.300 218.517,279.897 218.595,280.505 218.687 M306.500 219.087 C 307.105 219.178,308.095 219.178,308.700 219.087 C 309.305 218.995,308.810 218.920,307.600 218.920 C 306.390 218.920,305.895 218.995,306.500 219.087 M178.065 225.017 C 177.395 226.488,177.523 226.802,178.247 225.465 C 178.586 224.840,178.788 224.254,178.696 224.163 C 178.605 224.071,178.321 224.456,178.065 225.017 M176.466 228.443 C 176.003 229.185,175.614 229.239,171.580 229.125 C 169.170 229.056,167.199 229.135,167.199 229.300 C 167.201 230.079,175.861 229.616,176.602 228.798 C 177.002 228.356,177.248 227.914,177.149 227.816 C 177.050 227.717,176.743 227.999,176.466 228.443 M147.500 241.098 C 149.315 241.172,152.285 241.172,154.100 241.098 C 155.915 241.023,154.430 240.963,150.800 240.963 C 147.170 240.963,145.685 241.023,147.500 241.098 M181.900 241.096 C 183.275 241.174,185.525 241.174,186.900 241.096 C 188.275 241.018,187.150 240.954,184.400 240.954 C 181.650 240.954,180.525 241.018,181.900 241.096 M273.507 241.090 C 274.226 241.179,275.306 241.177,275.907 241.086 C 276.508 240.995,275.920 240.922,274.600 240.924 C 273.280 240.926,272.788 241.001,273.507 241.090 M95.779 241.711 C 95.671 241.992,95.632 245.907,95.691 250.411 L 95.800 258.600 96.800 258.639 C 97.701 258.673,97.709 258.661,96.885 258.511 L 95.970 258.344 96.085 249.772 C 96.198 241.352,96.173 240.685,95.779 241.711 M107.001 241.700 C 106.699 242.571,106.587 254.801,106.882 254.801 C 107.037 254.800,107.217 251.740,107.282 247.999 C 107.397 241.387,107.364 240.655,107.001 241.700 M234.176 241.718 C 234.067 242.002,234.028 244.927,234.090 248.218 L 234.203 254.200 234.402 247.699 C 234.597 241.309,234.573 240.684,234.176 241.718 M236.799 247.719 L 236.998 254.200 237.110 248.031 C 237.171 244.638,237.082 241.721,236.911 241.550 C 236.740 241.378,236.689 244.154,236.799 247.719 M260.715 249.796 L 260.830 258.353 259.212 258.516 L 257.594 258.678 259.297 258.639 L 261.000 258.600 261.108 250.228 C 261.168 245.624,261.078 241.718,260.908 241.548 C 260.739 241.378,260.652 245.089,260.715 249.796 M157.632 242.282 C 157.603 243.086,157.363 243.176,154.900 243.303 L 152.200 243.443 154.913 243.522 C 157.673 243.601,158.391 243.211,157.869 241.913 C 157.756 241.631,157.649 241.797,157.632 242.282 M210.200 241.857 C 212.237 243.664,212.987 244.191,212.202 243.263 C 211.766 242.748,211.047 242.141,210.604 241.914 C 210.162 241.687,209.980 241.662,210.200 241.857 M109.769 250.000 C 109.769 254.510,109.827 256.355,109.898 254.100 C 109.970 251.845,109.970 248.155,109.898 245.900 C 109.827 243.645,109.769 245.490,109.769 250.000 M131.600 242.125 C 131.600 242.194,132.185 242.779,132.900 243.425 L 134.200 244.600 133.025 243.300 C 131.930 242.088,131.600 241.816,131.600 242.125 M178.169 250.000 C 178.169 254.510,178.227 256.355,178.298 254.100 C 178.370 251.845,178.370 248.155,178.298 245.900 C 178.227 243.645,178.169 245.490,178.169 250.000 M246.969 250.000 C 246.969 254.510,247.027 256.355,247.098 254.100 C 247.170 251.845,247.170 248.155,247.098 245.900 C 247.027 243.645,246.969 245.490,246.969 250.000 M258.000 247.876 C 258.000 253.203,257.943 253.680,257.393 252.976 C 256.831 252.256,256.821 252.280,257.258 253.300 C 258.162 255.414,258.400 254.354,258.400 248.200 C 258.400 244.790,258.310 242.000,258.200 242.000 C 258.090 242.000,258.000 244.644,258.000 247.876 M185.400 243.179 L 181.000 243.400 181.000 246.000 L 181.000 248.600 184.701 248.624 L 188.402 248.648 184.801 248.509 L 181.200 248.370 181.200 245.985 L 181.200 243.600 185.376 243.600 C 187.729 243.600,189.661 243.425,189.800 243.200 C 189.936 242.980,189.992 242.836,189.924 242.879 C 189.856 242.923,187.820 243.058,185.400 243.179 M144.691 243.489 C 145.401 243.577,146.661 243.579,147.491 243.492 C 148.321 243.405,147.740 243.333,146.200 243.331 C 144.660 243.329,143.981 243.400,144.691 243.489 M275.700 243.487 C 276.305 243.578,277.295 243.578,277.900 243.487 C 278.505 243.395,278.010 243.320,276.800 243.320 C 275.590 243.320,275.095 243.395,275.700 243.487 M130.968 245.745 C 131.426 246.685,131.856 247.319,131.924 247.154 C 132.073 246.795,130.946 244.537,130.471 244.244 C 130.287 244.130,130.511 244.806,130.968 245.745 M198.388 245.222 C 198.146 245.674,198.007 246.222,198.080 246.439 C 198.152 246.657,198.418 246.287,198.671 245.617 C 199.197 244.225,199.039 244.005,198.388 245.222 M98.400 251.600 C 98.400 255.193,98.482 258.052,98.581 257.952 C 98.857 257.676,98.913 245.579,98.639 245.306 C 98.508 245.174,98.400 248.007,98.400 251.600 M249.600 251.773 L 249.600 258.347 248.595 258.522 C 247.675 258.683,247.683 258.693,248.695 258.649 L 249.800 258.600 249.910 252.283 C 249.979 248.363,250.167 246.056,250.406 246.204 C 250.621 246.337,250.686 246.168,250.553 245.821 C 249.881 244.071,249.600 245.828,249.600 251.773 M210.893 248.000 C 210.893 248.770,210.975 249.085,211.076 248.700 C 211.176 248.315,211.176 247.685,211.076 247.300 C 210.975 246.915,210.893 247.230,210.893 248.000 M121.731 249.800 C 121.733 251.340,121.805 251.921,121.892 251.091 C 121.979 250.261,121.977 249.001,121.889 248.291 C 121.800 247.581,121.729 248.260,121.731 249.800 M286.109 249.600 C 286.109 250.590,286.187 250.995,286.282 250.500 C 286.378 250.005,286.378 249.195,286.282 248.700 C 286.187 248.205,286.109 248.610,286.109 249.600 M135.301 249.800 C 135.305 250.680,135.387 250.993,135.483 250.495 C 135.579 249.998,135.575 249.278,135.475 248.895 C 135.375 248.513,135.296 248.920,135.301 249.800 M118.493 250.000 C 118.493 250.770,118.575 251.085,118.676 250.700 C 118.776 250.315,118.776 249.685,118.676 249.300 C 118.575 248.915,118.493 249.230,118.493 250.000 M132.093 250.000 C 132.093 250.770,132.175 251.085,132.276 250.700 C 132.376 250.315,132.376 249.685,132.276 249.300 C 132.175 248.915,132.093 249.230,132.093 250.000 M200.800 252.176 C 200.800 252.713,200.947 253.244,201.128 253.355 C 201.308 253.467,201.377 253.027,201.282 252.379 C 201.072 250.949,200.800 250.835,200.800 252.176 M180.880 254.873 C 180.800 258.332,180.795 258.348,179.700 258.513 L 178.600 258.680 179.713 258.740 C 181.131 258.816,181.266 258.412,181.098 254.565 L 180.961 251.400 180.880 254.873 M223.693 254.000 C 223.693 254.770,223.775 255.085,223.876 254.700 C 223.976 254.315,223.976 253.685,223.876 253.300 C 223.775 252.915,223.693 253.230,223.693 254.000 M104.000 255.600 C 104.449 256.480,104.906 257.200,105.016 257.200 C 105.126 257.200,104.849 256.480,104.400 255.600 C 103.951 254.720,103.494 254.000,103.384 254.000 C 103.274 254.000,103.551 254.720,104.000 255.600 M283.375 256.500 L 282.200 257.800 283.500 256.625 C 284.215 255.979,284.800 255.394,284.800 255.325 C 284.800 255.016,284.470 255.288,283.375 256.500 M120.801 256.537 C 121.351 257.162,122.160 257.859,122.600 258.086 C 123.442 258.520,123.418 258.493,121.201 256.597 L 119.803 255.400 120.801 256.537 M203.965 256.526 C 204.144 256.705,205.081 256.791,206.046 256.718 L 207.800 256.585 205.719 256.393 C 204.575 256.287,203.785 256.347,203.965 256.526 M230.400 256.400 L 228.600 256.680 230.276 256.740 C 231.198 256.773,232.064 256.620,232.200 256.400 C 232.336 256.180,232.392 256.027,232.324 256.060 C 232.256 256.093,231.390 256.246,230.400 256.400 M126.105 256.687 C 126.714 256.779,127.614 256.777,128.105 256.682 C 128.597 256.587,128.100 256.511,127.000 256.514 C 125.900 256.517,125.497 256.595,126.105 256.687 M149.462 258.500 C 149.564 258.665,150.076 258.800,150.600 258.800 C 151.124 258.800,151.636 258.665,151.738 258.500 C 151.840 258.335,151.328 258.200,150.600 258.200 C 149.872 258.200,149.360 258.335,149.462 258.500 M271.954 258.515 C 272.128 258.689,274.055 258.778,276.235 258.713 L 280.200 258.595 275.918 258.398 C 273.563 258.289,271.779 258.342,271.954 258.515 M106.700 258.682 C 107.195 258.778,108.005 258.778,108.500 258.682 C 108.995 258.587,108.590 258.509,107.600 258.509 C 106.610 258.509,106.205 258.587,106.700 258.682 M126.105 259.087 C 126.714 259.179,127.614 259.177,128.105 259.082 C 128.597 258.987,128.100 258.911,127.000 258.914 C 125.900 258.917,125.497 258.995,126.105 259.087 M204.905 259.087 C 205.514 259.179,206.414 259.177,206.905 259.082 C 207.397 258.987,206.900 258.911,205.800 258.914 C 204.700 258.917,204.297 258.995,204.905 259.087 M229.305 259.087 C 229.914 259.179,230.814 259.177,231.305 259.082 C 231.797 258.987,231.300 258.911,230.200 258.914 C 229.100 258.917,228.697 258.995,229.305 259.087 " stroke="none" fill="#d2d8d2" fill-rule="evenodd"></path></g></svg>