<svg id="svg" version="1.1" xmlns="http://www.w3.org/2000/svg" xmlns:xlink="http://www.w3.org/1999/xlink" width="400" height="400" viewBox="0, 0, 400,400"><g id="svgg"><path id="path0" d="M292.300 132.264 C 291.475 132.366,290.800 132.602,290.800 132.789 C 290.800 132.976,290.076 133.252,289.192 133.401 C 288.308 133.551,287.363 133.894,287.092 134.163 C 286.821 134.433,286.002 134.862,285.271 135.116 C 280.063 136.928,280.220 139.104,285.972 144.870 L 290.744 149.653 297.473 149.527 L 304.202 149.400 308.317 145.284 C 312.009 141.591,313.200 139.996,313.200 138.743 C 313.200 138.074,310.006 135.217,308.967 134.956 C 308.435 134.822,308.000 134.587,308.000 134.432 C 308.000 134.278,307.055 133.912,305.900 133.619 C 304.745 133.326,303.690 132.916,303.555 132.708 C 303.290 132.299,294.757 131.963,292.300 132.264 M285.900 167.633 C 282.433 171.149,281.200 172.661,281.200 173.397 C 281.200 174.540,283.245 176.696,284.670 177.053 C 285.181 177.182,285.600 177.418,285.600 177.579 C 285.600 177.740,286.365 178.118,287.300 178.419 C 288.235 178.720,289.094 179.098,289.209 179.260 C 290.200 180.650,305.200 180.600,305.200 179.206 C 305.200 179.035,306.053 178.680,307.095 178.418 C 308.137 178.155,309.082 177.819,309.195 177.669 C 309.308 177.520,310.165 176.879,311.100 176.244 C 312.796 175.094,313.000 174.690,312.840 172.800 C 312.748 171.722,305.039 163.600,304.107 163.600 C 303.828 163.600,303.600 163.420,303.600 163.200 C 303.600 162.948,301.189 162.812,297.100 162.833 L 290.600 162.867 285.900 167.633 " stroke="none" fill="#fc8c54" fill-rule="evenodd"></path><path id="path1" d="M277.534 141.996 C 276.728 142.866,275.949 144.123,275.802 144.789 C 275.656 145.455,275.378 146.000,275.184 146.000 C 274.990 146.000,274.636 146.765,274.399 147.700 C 274.161 148.635,273.749 149.833,273.483 150.361 C 272.863 151.596,272.840 161.925,273.456 162.324 C 273.691 162.476,274.108 163.545,274.382 164.700 C 274.656 165.855,275.028 166.800,275.209 166.800 C 275.390 166.800,275.732 167.385,275.970 168.100 C 277.700 173.311,279.971 173.149,285.756 167.402 C 291.094 162.098,290.904 162.552,290.732 155.485 L 290.600 150.078 288.100 147.602 C 286.725 146.241,285.600 144.963,285.600 144.763 C 285.600 144.564,285.430 144.400,285.222 144.400 C 285.014 144.400,283.958 143.500,282.876 142.400 C 280.435 139.920,279.522 139.851,277.534 141.996 " stroke="none" fill="#5474fc" fill-rule="evenodd"></path><path id="path2" d="M309.137 144.500 C 303.345 150.223,303.600 149.666,303.600 156.586 C 303.600 160.195,303.752 162.400,304.000 162.400 C 304.220 162.400,304.400 162.607,304.400 162.859 C 304.400 164.024,313.086 172.000,314.355 172.000 C 316.118 172.000,319.600 167.449,319.600 165.145 C 319.600 164.735,319.755 164.400,319.945 164.400 C 320.529 164.400,321.200 160.053,321.200 156.266 C 321.200 152.512,320.532 147.600,320.022 147.600 C 319.860 147.600,319.511 146.880,319.247 146.000 C 318.984 145.120,318.595 144.400,318.384 144.400 C 318.173 144.400,318.000 144.153,318.000 143.850 C 318.000 143.548,317.402 142.648,316.672 141.850 C 314.564 139.549,313.918 139.776,309.137 144.500 " stroke="none" fill="#34b42c" fill-rule="evenodd"></path><path id="path3" d="M208.400 196.414 L 208.400 218.027 212.700 217.914 L 217.000 217.800 217.200 208.800 C 217.414 199.152,217.523 198.646,219.800 196.725 C 221.817 195.023,225.632 195.527,227.393 197.727 C 227.953 198.427,228.634 199.265,228.906 199.589 C 229.251 200.000,229.460 202.842,229.600 208.989 L 229.800 217.800 234.000 217.800 L 238.200 217.800 238.314 210.800 C 238.538 197.013,236.727 192.158,230.094 188.768 C 227.392 187.387,221.325 187.349,219.153 188.700 C 218.357 189.195,217.592 189.600,217.453 189.600 C 217.314 189.600,217.200 186.270,217.200 182.200 L 217.200 174.800 212.800 174.800 L 208.400 174.800 208.400 196.414 M89.467 176.326 C 89.105 176.726,88.695 177.626,88.555 178.326 C 88.415 179.027,88.162 179.600,87.993 179.600 C 87.825 179.600,87.564 180.089,87.414 180.686 C 87.264 181.283,86.795 182.534,86.371 183.464 C 85.947 184.395,85.600 185.281,85.600 185.434 C 85.600 185.587,85.250 186.452,84.822 187.356 C 84.394 188.260,83.211 190.980,82.193 193.400 C 81.176 195.820,79.996 198.563,79.572 199.496 C 79.147 200.428,78.800 201.427,78.800 201.716 C 78.800 202.004,78.638 202.411,78.441 202.620 C 78.243 202.829,77.590 204.260,76.989 205.800 C 75.948 208.467,75.265 210.074,73.544 213.900 C 73.124 214.835,72.672 216.140,72.540 216.800 L 72.300 218.000 77.372 218.000 L 82.444 218.000 83.461 215.700 C 84.021 214.435,84.821 212.637,85.239 211.704 C 85.658 210.772,86.000 209.827,86.000 209.604 C 86.000 209.345,89.043 209.200,94.512 209.200 L 103.025 209.200 103.485 210.300 C 103.738 210.905,104.551 212.840,105.292 214.600 L 106.638 217.800 111.396 217.913 C 117.975 218.070,117.665 218.535,114.967 212.540 C 114.655 211.846,114.400 211.146,114.400 210.983 C 114.400 210.821,114.040 209.903,113.600 208.944 C 113.160 207.985,112.440 206.415,112.000 205.456 C 111.560 204.497,111.200 203.572,111.200 203.400 C 111.200 203.228,110.840 202.303,110.400 201.344 C 109.960 200.385,109.240 198.815,108.800 197.856 C 108.360 196.897,108.000 195.979,108.000 195.817 C 108.000 195.654,107.741 194.954,107.425 194.260 C 107.109 193.567,106.372 191.830,105.787 190.400 C 105.202 188.970,104.487 187.260,104.197 186.600 C 103.907 185.940,103.186 184.230,102.594 182.800 C 102.003 181.370,101.177 179.460,100.760 178.556 C 100.342 177.652,100.000 176.728,100.000 176.503 C 100.000 175.325,90.517 175.166,89.467 176.326 M297.801 182.086 C 297.700 182.369,297.568 183.931,297.508 185.558 C 297.393 188.701,297.401 188.689,294.900 189.615 L 293.600 190.097 293.600 193.249 L 293.600 196.400 295.600 196.400 L 297.600 196.400 297.600 203.145 C 297.600 216.592,299.364 219.104,308.528 218.703 C 314.695 218.433,314.400 218.660,314.400 214.180 L 314.400 210.447 311.625 210.679 C 308.928 210.905,308.816 210.878,307.625 209.687 L 306.400 208.462 306.400 202.431 L 306.400 196.400 310.400 196.400 L 314.400 196.400 314.400 192.400 L 314.400 188.400 310.416 188.400 L 306.432 188.400 306.316 185.100 L 306.200 181.800 302.093 181.686 C 299.026 181.601,297.939 181.702,297.801 182.086 M131.987 187.976 C 130.602 188.397,129.209 189.215,127.900 190.375 L 126.800 191.350 126.800 190.324 C 126.800 188.649,126.031 188.358,121.940 188.484 L 118.200 188.600 118.200 203.200 L 118.200 217.800 122.600 217.800 L 127.000 217.800 127.200 209.000 C 127.418 199.395,127.460 199.214,129.881 197.362 C 131.300 196.277,131.664 196.194,135.400 196.115 L 139.400 196.030 139.677 194.515 C 139.829 193.682,139.964 191.899,139.977 190.554 L 140.000 188.109 138.144 187.854 C 135.790 187.532,133.288 187.581,131.987 187.976 M153.900 188.061 C 153.075 188.291,152.400 188.642,152.400 188.840 C 152.400 189.038,152.185 189.200,151.922 189.200 C 151.659 189.200,150.975 189.649,150.402 190.198 L 149.360 191.197 148.849 189.784 L 148.338 188.372 144.469 188.486 L 140.600 188.600 140.600 203.200 L 140.600 217.800 145.000 217.800 L 149.400 217.800 149.600 208.714 L 149.800 199.627 151.581 198.017 C 153.608 196.183,154.736 195.875,158.745 196.065 C 161.845 196.212,161.978 196.123,162.028 193.867 C 162.044 193.170,162.193 192.252,162.359 191.827 C 162.741 190.851,162.506 190.459,166.886 199.366 C 168.843 203.344,170.619 206.870,170.834 207.200 C 171.048 207.530,171.336 208.140,171.473 208.555 C 171.610 208.971,172.145 210.105,172.661 211.077 C 173.887 213.382,173.896 213.313,171.783 217.876 C 168.294 225.412,166.800 228.825,166.800 229.255 C 166.800 229.445,168.964 229.600,171.610 229.600 L 176.420 229.600 176.831 228.500 C 177.254 227.366,177.682 226.412,180.154 221.085 C 180.949 219.371,181.600 217.883,181.600 217.777 C 181.600 217.670,182.298 216.102,183.150 214.292 C 184.003 212.481,185.104 210.100,185.596 209.000 C 186.088 207.900,186.941 206.010,187.490 204.800 C 188.571 202.421,189.524 200.283,190.835 197.300 C 191.294 196.255,192.014 194.745,192.435 193.946 C 192.856 193.146,193.200 192.216,193.200 191.879 C 193.200 191.542,193.376 191.207,193.591 191.133 C 193.806 191.060,194.098 190.415,194.241 189.700 L 194.500 188.400 189.650 188.400 C 186.420 188.400,184.800 188.545,184.800 188.835 C 184.800 189.263,181.734 195.972,180.584 198.062 C 180.263 198.646,179.999 199.366,179.997 199.662 C 179.996 199.958,179.658 200.711,179.245 201.336 L 178.496 202.473 175.024 195.482 L 171.551 188.491 166.276 188.251 C 163.374 188.119,159.740 187.928,158.200 187.826 C 156.660 187.725,154.725 187.831,153.900 188.061 M249.895 187.979 C 238.044 191.783,234.744 206.601,243.886 214.956 C 253.638 223.868,269.381 216.341,269.395 202.760 C 269.397 200.822,269.203 199.076,268.951 198.760 C 268.705 198.452,268.283 197.512,268.012 196.671 C 266.089 190.704,256.194 185.957,249.895 187.979 M278.600 187.929 C 269.112 190.074,267.819 203.874,276.923 205.819 C 277.625 205.970,278.380 206.222,278.600 206.380 C 278.820 206.538,280.021 206.887,281.269 207.156 C 284.113 207.767,284.744 208.416,283.838 209.798 C 282.869 211.278,279.399 211.252,277.616 209.752 L 276.371 208.704 273.885 209.931 C 269.928 211.885,269.895 211.928,271.051 213.715 C 276.692 222.438,293.523 218.702,293.372 208.760 C 293.299 203.944,287.567 199.200,281.822 199.200 C 280.761 199.200,279.200 198.132,279.200 197.406 C 279.200 195.503,282.421 194.997,284.327 196.600 C 285.712 197.766,285.839 197.783,287.317 197.012 C 287.931 196.692,289.050 196.314,289.803 196.173 C 291.975 195.766,292.252 195.100,291.081 193.108 C 288.619 188.922,283.536 186.813,278.600 187.929 M96.784 194.122 C 96.804 194.516,98.199 197.796,98.987 199.300 L 99.563 200.400 94.781 200.400 C 92.152 200.400,90.000 200.315,90.000 200.212 C 90.000 200.108,90.450 199.040,91.000 197.837 C 91.550 196.635,92.001 195.505,92.002 195.326 C 92.004 195.147,92.236 194.550,92.518 194.000 C 92.800 193.450,93.364 192.119,93.771 191.041 L 94.511 189.082 95.639 191.441 C 96.260 192.739,96.775 193.945,96.784 194.122 M256.113 196.146 C 259.007 197.374,260.655 200.614,260.272 204.326 C 259.336 213.391,247.600 212.539,247.600 203.406 C 247.600 197.973,251.858 194.341,256.113 196.146 M197.919 209.491 C 195.192 211.183,194.835 215.193,197.227 217.281 C 199.888 219.605,204.791 218.033,205.275 214.701 C 205.893 210.451,201.448 207.303,197.919 209.491 M108.580 232.908 C 107.929 234.605,108.595 239.399,109.500 239.528 C 110.266 239.637,110.400 239.472,110.400 238.428 C 110.400 237.291,110.504 237.200,111.800 237.200 C 113.089 237.200,113.200 237.295,113.200 238.400 C 113.200 239.333,113.378 239.600,114.000 239.600 C 114.741 239.600,114.800 239.333,114.800 235.971 C 114.800 232.730,114.725 232.356,114.100 232.474 C 113.611 232.567,113.363 233.057,113.276 234.103 C 113.159 235.512,113.073 235.600,111.800 235.600 C 110.527 235.600,110.441 235.512,110.324 234.103 C 110.195 232.550,109.025 231.748,108.580 232.908 M119.009 233.300 C 116.801 235.218,117.650 239.190,120.384 239.737 C 123.537 240.367,125.815 237.568,124.570 234.591 C 123.596 232.259,120.922 231.638,119.009 233.300 M128.416 233.275 C 127.304 234.469,127.763 236.400,129.158 236.400 C 129.920 236.400,131.612 237.656,131.373 238.044 C 131.016 238.622,129.594 238.451,129.345 237.800 C 129.085 237.123,128.171 236.999,127.805 237.592 C 127.379 238.282,128.357 239.527,129.527 239.784 C 133.069 240.562,134.680 236.796,131.393 235.423 C 130.627 235.103,130.000 234.652,130.000 234.420 C 130.000 233.886,131.072 233.870,131.400 234.400 C 131.767 234.994,133.200 234.884,133.200 234.262 C 133.200 232.475,129.812 231.777,128.416 233.275 M135.800 232.800 C 135.402 233.443,135.970 234.000,137.024 234.000 C 137.966 234.000,138.000 234.098,138.000 236.800 C 138.000 239.333,138.076 239.600,138.800 239.600 C 139.524 239.600,139.600 239.333,139.600 236.800 L 139.600 234.000 140.800 234.000 C 141.733 234.000,142.000 233.822,142.000 233.200 C 142.000 232.313,136.327 231.947,135.800 232.800 M144.800 236.000 C 144.800 239.333,144.859 239.600,145.600 239.600 C 146.341 239.600,146.400 239.333,146.400 236.000 C 146.400 232.667,146.341 232.400,145.600 232.400 C 144.859 232.400,144.800 232.667,144.800 236.000 M149.769 232.937 C 149.138 234.581,149.803 239.400,150.677 239.525 C 151.462 239.637,151.567 239.448,151.677 237.725 L 151.800 235.800 152.736 237.700 C 153.532 239.317,153.845 239.600,154.836 239.600 L 156.000 239.600 156.000 236.000 C 156.000 232.667,155.941 232.400,155.200 232.400 C 154.505 232.400,154.400 232.667,154.400 234.424 C 154.400 236.792,153.958 236.724,152.834 234.183 C 152.022 232.348,150.268 231.635,149.769 232.937 M160.036 233.361 C 158.031 235.496,159.142 239.467,161.800 239.659 C 165.285 239.912,165.600 239.758,165.600 237.800 L 165.600 236.000 164.000 236.000 C 162.667 236.000,162.400 236.133,162.400 236.800 C 162.400 237.258,162.667 237.600,163.024 237.600 C 163.367 237.600,163.536 237.780,163.400 238.000 C 162.683 239.160,160.800 237.748,160.800 236.051 C 160.800 234.069,163.250 233.068,163.807 234.823 C 164.122 235.814,165.330 235.704,165.530 234.666 C 165.951 232.483,161.789 231.495,160.036 233.361 M173.200 233.183 C 173.200 233.788,173.460 234.000,174.200 234.000 C 175.171 234.000,175.200 234.080,175.200 236.800 C 175.200 239.520,175.229 239.600,176.200 239.600 C 177.171 239.600,177.200 239.518,177.200 236.827 C 177.200 234.098,177.218 234.051,178.300 233.927 C 180.906 233.627,179.487 232.603,176.300 232.483 C 173.407 232.374,173.200 232.421,173.200 233.183 M182.267 232.667 C 182.120 232.813,182.000 234.433,182.000 236.267 L 182.000 239.600 184.833 239.600 C 188.124 239.600,188.642 238.685,185.469 238.478 C 183.123 238.325,182.844 237.311,185.097 237.124 C 187.358 236.937,187.474 235.600,185.229 235.600 C 182.779 235.600,182.839 234.101,185.297 233.923 C 186.534 233.833,187.029 233.611,187.126 233.100 C 187.262 232.383,182.936 231.997,182.267 232.667 M190.981 233.458 C 189.827 234.704,189.655 237.102,190.615 238.567 C 192.035 240.735,196.373 239.934,196.394 237.500 C 196.403 236.499,195.493 236.636,194.398 237.802 L 193.456 238.804 192.528 237.933 C 192.018 237.453,191.600 236.629,191.600 236.102 C 191.600 234.172,193.752 233.271,194.707 234.800 C 195.410 235.926,196.400 235.822,196.400 234.623 C 196.400 232.388,192.708 231.595,190.981 233.458 M199.867 232.667 C 199.116 233.417,199.592 239.600,200.400 239.600 C 201.022 239.600,201.200 239.333,201.200 238.400 C 201.200 237.295,201.311 237.200,202.600 237.200 C 203.889 237.200,204.000 237.295,204.000 238.400 C 204.000 239.418,204.154 239.600,205.016 239.600 L 206.031 239.600 205.916 236.100 C 205.807 232.816,205.745 232.592,204.900 232.472 C 204.093 232.358,204.000 232.513,204.000 233.972 C 204.000 235.566,203.971 235.600,202.600 235.600 C 201.233 235.600,201.200 235.562,201.200 234.000 C 201.200 232.492,200.621 231.913,199.867 232.667 M209.467 232.667 C 208.732 233.402,209.190 239.600,209.979 239.600 C 210.637 239.600,210.777 239.273,210.879 237.500 L 211.000 235.400 212.004 237.400 C 214.351 242.078,215.873 239.964,215.245 232.900 C 215.096 231.235,213.600 232.504,213.592 234.300 L 213.585 236.200 212.392 234.300 C 211.289 232.543,210.199 231.935,209.467 232.667 M219.382 233.382 C 216.546 236.218,219.658 241.023,223.407 239.597 C 224.970 239.003,225.187 238.579,225.194 236.100 C 225.204 232.520,221.825 230.939,219.382 233.382 M228.580 232.908 C 228.460 233.220,228.416 234.808,228.481 236.437 L 228.600 239.400 231.333 239.519 C 233.782 239.626,234.052 239.563,233.927 238.919 C 233.821 238.371,233.410 238.200,232.194 238.200 L 230.600 238.200 230.400 235.404 C 230.203 232.646,229.205 231.278,228.580 232.908 M237.381 233.458 C 235.455 235.537,236.385 239.283,238.947 239.764 C 241.570 240.256,243.600 238.660,243.600 236.106 C 243.600 232.818,239.566 231.100,237.381 233.458 M247.777 232.706 C 246.339 233.705,245.222 238.000,246.400 238.000 C 246.620 238.000,246.800 238.252,246.800 238.561 C 246.800 239.369,248.862 239.969,250.764 239.714 C 253.109 239.400,253.386 236.000,251.067 236.000 C 249.367 236.000,249.030 236.349,249.854 237.259 C 250.461 237.931,250.460 238.002,249.832 238.243 C 249.017 238.556,247.600 237.182,247.600 236.079 C 247.600 234.338,250.033 233.366,250.800 234.800 C 251.459 236.031,252.400 235.804,252.400 234.414 C 252.400 232.729,249.361 231.606,247.777 232.706 M256.280 232.653 C 255.520 233.413,255.983 239.600,256.800 239.600 C 257.533 239.600,257.600 239.333,257.600 236.400 C 257.600 234.640,257.610 233.065,257.621 232.900 C 257.650 232.492,256.629 232.304,256.280 232.653 M261.200 236.000 L 261.200 239.600 263.800 239.600 C 265.844 239.600,266.400 239.472,266.400 239.000 C 266.400 238.567,265.956 238.400,264.800 238.400 C 263.644 238.400,263.200 238.233,263.200 237.800 C 263.200 237.460,263.558 237.200,264.026 237.200 C 265.146 237.200,266.477 236.448,266.188 235.980 C 266.058 235.771,265.333 235.600,264.576 235.600 C 263.467 235.600,263.200 235.445,263.200 234.800 C 263.200 234.133,263.467 234.000,264.800 234.000 C 266.133 234.000,266.400 233.867,266.400 233.200 C 266.400 232.482,266.133 232.400,263.800 232.400 L 261.200 232.400 261.200 236.000 M270.338 232.668 C 268.508 233.154,269.116 235.813,271.252 236.667 C 272.792 237.284,273.229 238.088,272.328 238.645 C 272.052 238.815,271.616 238.575,271.279 238.068 C 270.580 237.016,269.197 236.904,269.206 237.900 C 269.215 238.944,269.676 239.447,270.900 239.746 C 274.578 240.646,276.185 236.942,272.770 235.435 C 271.907 235.054,271.200 234.575,271.200 234.371 C 271.200 233.874,272.289 233.896,272.600 234.400 C 273.056 235.138,274.400 234.850,274.400 234.014 C 274.400 232.723,272.502 232.094,270.338 232.668 M122.320 234.480 C 123.799 235.959,122.222 239.226,120.556 238.134 C 118.937 237.073,119.416 234.000,121.200 234.000 C 121.552 234.000,122.056 234.216,122.320 234.480 M223.120 234.480 C 224.518 235.878,223.133 238.863,221.444 238.093 C 220.294 237.569,219.883 234.675,220.900 234.265 C 221.787 233.907,222.628 233.988,223.120 234.480 M241.232 235.084 C 242.109 237.390,240.405 239.253,238.771 237.774 C 237.907 236.992,237.749 235.211,238.480 234.480 C 239.361 233.599,240.787 233.913,241.232 235.084 " stroke="none" fill="#646464" fill-rule="evenodd"></path><path id="path4" d="M291.705 151.108 C 290.733 152.295,290.290 160.800,291.200 160.800 C 291.420 160.800,291.600 161.051,291.600 161.357 C 291.600 162.609,301.366 162.977,302.571 161.771 C 303.624 160.719,303.479 151.617,302.395 150.689 C 300.884 149.395,292.851 149.710,291.705 151.108 " stroke="none" fill="#dcdcdc" fill-rule="evenodd"></path><path id="path5" d="" stroke="none" fill="#707c8c" fill-rule="evenodd"></path><path id="path6" d="" stroke="none" fill="#8c7c48" fill-rule="evenodd"></path><path id="path7" d="" stroke="none" fill="#4c8448" fill-rule="evenodd"></path><path id="path8" d="M297.467 181.867 C 297.320 182.013,297.200 183.543,297.200 185.267 C 297.200 187.089,297.033 188.400,296.800 188.400 C 296.580 188.400,296.400 188.602,296.400 188.849 C 296.400 189.169,296.564 189.162,296.971 188.824 C 297.399 188.469,298.157 181.588,297.767 181.599 C 297.748 181.600,297.613 181.720,297.467 181.867 M118.261 188.300 C 118.158 188.465,119.779 188.542,121.862 188.472 C 124.382 188.387,125.843 188.504,126.225 188.821 C 126.568 189.105,126.800 189.134,126.800 188.892 C 126.800 188.043,118.767 187.486,118.261 188.300 M140.000 188.876 C 140.000 189.666,140.049 189.687,140.500 189.087 C 140.892 188.565,141.825 188.393,144.800 188.293 L 148.600 188.166 144.300 188.083 C 140.116 188.002,140.000 188.024,140.000 188.876 M163.800 188.262 C 167.635 188.555,171.911 188.576,171.740 188.300 C 171.637 188.135,169.448 188.031,166.876 188.070 C 164.304 188.108,162.920 188.195,163.800 188.262 M189.385 188.293 C 192.548 188.381,194.287 188.592,194.515 188.913 C 194.763 189.262,194.815 189.230,194.698 188.800 C 194.564 188.309,193.632 188.196,189.567 188.179 L 184.600 188.159 189.385 188.293 M308.300 188.295 C 309.455 188.376,311.345 188.376,312.500 188.295 C 313.655 188.214,312.710 188.148,310.400 188.148 C 308.090 188.148,307.145 188.214,308.300 188.295 M232.000 189.700 C 232.000 189.768,232.630 190.418,233.400 191.144 C 234.170 191.871,234.701 192.208,234.580 191.893 C 234.390 191.398,232.000 189.366,232.000 189.700 M264.778 192.175 C 265.537 192.959,266.217 193.600,266.290 193.600 C 266.659 193.600,264.590 191.205,264.039 190.995 C 263.688 190.861,264.020 191.392,264.778 192.175 M297.366 203.600 C 297.366 207.670,297.425 209.335,297.498 207.300 C 297.571 205.265,297.571 201.935,297.498 199.900 C 297.425 197.865,297.366 199.530,297.366 203.600 M128.598 198.402 C 128.198 198.844,127.966 199.299,128.082 199.415 C 128.197 199.530,128.590 199.169,128.955 198.612 C 129.752 197.396,129.593 197.302,128.598 198.402 M238.200 209.419 C 238.200 214.138,238.335 217.999,238.500 218.000 C 238.996 218.000,238.970 201.630,238.473 201.119 C 238.323 200.965,238.200 204.700,238.200 209.419 M242.070 213.578 C 242.581 214.226,243.149 214.766,243.330 214.778 C 243.512 214.790,243.242 214.270,242.730 213.622 C 242.219 212.974,241.651 212.434,241.470 212.422 C 241.288 212.410,241.558 212.930,242.070 213.578 M306.600 219.200 C 306.736 219.420,307.197 219.600,307.624 219.600 C 308.051 219.600,308.400 219.420,308.400 219.200 C 308.400 218.980,307.939 218.800,307.376 218.800 C 306.796 218.800,306.460 218.973,306.600 219.200 M110.331 234.000 C 110.415 234.880,110.555 235.600,110.642 235.600 C 110.729 235.600,110.800 234.880,110.800 234.000 C 110.800 233.120,110.660 232.400,110.489 232.400 C 110.319 232.400,110.248 233.120,110.331 234.000 M112.958 232.966 C 112.838 233.278,112.805 234.043,112.884 234.666 C 113.002 235.591,113.064 235.487,113.225 234.100 C 113.427 232.351,113.338 231.975,112.958 232.966 M118.629 233.009 C 118.205 233.329,117.935 233.668,118.029 233.761 C 118.123 233.855,118.625 233.587,119.144 233.166 C 120.238 232.279,119.779 232.139,118.629 233.009 M230.400 235.299 C 230.596 238.137,230.624 238.201,231.705 238.249 C 232.717 238.293,232.725 238.283,231.805 238.122 C 230.845 237.955,230.800 237.822,230.800 235.173 C 230.800 233.648,230.665 232.400,230.500 232.399 C 230.335 232.399,230.290 233.704,230.400 235.299 M255.664 236.100 C 255.729 239.862,255.888 239.414,256.089 234.899 C 256.150 233.524,256.065 232.399,255.900 232.399 C 255.735 232.400,255.629 234.065,255.664 236.100 M257.740 236.400 C 257.740 238.270,257.809 239.035,257.893 238.100 C 257.977 237.165,257.977 235.635,257.893 234.700 C 257.809 233.765,257.740 234.530,257.740 236.400 M139.734 236.800 C 139.734 238.450,139.805 239.125,139.891 238.300 C 139.978 237.475,139.978 236.125,139.891 235.300 C 139.805 234.475,139.734 235.150,139.734 236.800 M252.400 234.950 C 252.400 235.356,252.011 235.535,251.181 235.512 C 250.511 235.493,249.796 235.644,249.592 235.848 C 249.364 236.076,249.828 236.161,250.795 236.069 C 252.439 235.912,253.587 235.086,252.819 234.612 C 252.589 234.469,252.400 234.621,252.400 234.950 M163.800 235.600 L 162.200 235.886 163.900 235.943 C 164.835 235.974,165.600 235.820,165.600 235.600 C 165.600 235.380,165.555 235.226,165.500 235.257 C 165.445 235.288,164.680 235.442,163.800 235.600 M225.200 236.424 C 225.200 236.877,225.380 237.136,225.600 237.000 C 225.820 236.864,226.000 236.493,226.000 236.176 C 226.000 235.859,225.820 235.600,225.600 235.600 C 225.380 235.600,225.200 235.971,225.200 236.424 M194.634 237.057 C 194.445 237.548,194.510 237.612,194.891 237.310 C 195.171 237.089,195.670 236.807,196.000 236.685 C 196.410 236.534,196.328 236.453,195.743 236.432 C 195.271 236.414,194.772 236.695,194.634 237.057 M110.493 238.400 C 110.493 239.170,110.575 239.485,110.676 239.100 C 110.776 238.715,110.776 238.085,110.676 237.700 C 110.575 237.315,110.493 237.630,110.493 238.400 M112.893 238.400 C 112.893 239.170,112.975 239.485,113.076 239.100 C 113.176 238.715,113.176 238.085,113.076 237.700 C 112.975 237.315,112.893 237.630,112.893 238.400 M192.553 237.897 C 192.968 238.383,193.499 238.662,193.734 238.517 C 194.007 238.348,193.952 238.189,193.580 238.073 C 193.261 237.974,192.730 237.695,192.400 237.453 C 192.070 237.212,192.139 237.411,192.553 237.897 M129.400 238.000 C 129.536 238.220,130.042 238.387,130.524 238.372 C 131.369 238.345,131.371 238.331,130.600 238.000 C 129.499 237.527,129.108 237.527,129.400 238.000 M184.000 238.223 C 185.515 238.553,187.600 238.609,187.600 238.320 C 187.600 238.144,186.655 238.021,185.500 238.046 C 184.345 238.072,183.670 238.152,184.000 238.223 M263.900 238.282 C 264.395 238.378,265.205 238.378,265.700 238.282 C 266.195 238.187,265.790 238.109,264.800 238.109 C 263.810 238.109,263.405 238.187,263.900 238.282 M271.520 238.480 C 271.893 238.853,272.107 238.853,272.480 238.480 C 272.853 238.107,272.747 238.000,272.000 238.000 C 271.253 238.000,271.147 238.107,271.520 238.480 M120.400 240.100 C 120.400 240.265,120.850 240.400,121.400 240.400 C 121.950 240.400,122.400 240.265,122.400 240.100 C 122.400 239.935,121.950 239.800,121.400 239.800 C 120.850 239.800,120.400 239.935,120.400 240.100 M129.463 240.100 C 129.712 240.505,131.502 240.483,131.756 240.071 C 131.868 239.890,131.357 239.755,130.620 239.771 C 129.883 239.787,129.362 239.935,129.463 240.100 M161.436 240.058 C 161.696 240.480,163.085 240.510,163.337 240.100 C 163.438 239.935,163.005 239.781,162.373 239.758 C 161.741 239.735,161.320 239.870,161.436 240.058 M192.400 240.100 C 192.400 240.265,192.850 240.400,193.400 240.400 C 193.950 240.400,194.400 240.265,194.400 240.100 C 194.400 239.935,193.950 239.800,193.400 239.800 C 192.850 239.800,192.400 239.935,192.400 240.100 M238.800 240.055 C 238.800 240.245,239.250 240.400,239.800 240.400 C 240.350 240.400,240.800 240.331,240.800 240.247 C 240.800 240.162,240.350 240.007,239.800 239.902 C 239.250 239.797,238.800 239.866,238.800 240.055 M248.662 240.100 C 248.764 240.265,249.197 240.400,249.624 240.400 C 250.051 240.400,250.400 240.265,250.400 240.100 C 250.400 239.935,249.967 239.800,249.438 239.800 C 248.909 239.800,248.560 239.935,248.662 240.100 M270.800 240.100 C 270.800 240.265,271.340 240.400,272.000 240.400 C 272.660 240.400,273.200 240.265,273.200 240.100 C 273.200 239.935,272.660 239.800,272.000 239.800 C 271.340 239.800,270.800 239.935,270.800 240.100 " stroke="none" fill="#4c6068" fill-rule="evenodd"></path></g></svg>